<svg xmlns="http://www.w3.org/2000/svg">
    <symbol id="down-arrow-icon" viewBox="0 0 31 32" fill="none">
        <path xmlns="http://www.w3.org/2000/svg" fill-rule="evenodd" clip-rule="evenodd"
            d="M20.4139 8.7501L11.9999 17.1641L3.58594 8.7501L4.99994 7.3361L11.9999 14.3361L18.9999 7.3361L20.4139 8.7501Z"
            fill="#71717A" />
    </symbol>
    <symbol id="exchange-icon" viewBox="0 0 31 32" fill="none">
        <path xmlns="http://www.w3.org/2000/svg"
            d="M16.7357 10.2857V6.42857H25.5V3.85714H16.7357V0L11.75 5.14286L16.7357 10.2857ZM9.25714 11.5714H0.5V14.1429H9.26429V18L14.25 12.8571L9.26429 7.71429V11.5714H9.25714Z"
            fill="white" />
    </symbol>
    <symbol id="sunrise-icon" viewBox="0 0 31 32" fill="none">
        <path fill-rule="evenodd" clip-rule="evenodd"
            d="M15.8443 3.21795C16.1986 3.36169 16.3693 3.76543 16.2256 4.11974L15.7197 5.36662C15.576 5.72092 15.1722 5.89163 14.818 5.74789C14.4637 5.60415 14.2929 5.20042 14.4367 4.84611L14.9425 3.59923C15.0863 3.24493 15.49 3.07422 15.8443 3.21795Z"
            fill="#52525B" />
        <path fill-rule="evenodd" clip-rule="evenodd"
            d="M21.0313 8.33475C21.1802 8.68692 21.0154 9.09312 20.6632 9.24201L19.4239 9.766C19.0718 9.91489 18.6655 9.75012 18.5166 9.39794C18.3677 9.04578 18.5325 8.63958 18.8847 8.49069L20.1241 7.96669C20.4762 7.8178 20.8824 7.98258 21.0313 8.33475Z"
            fill="#52525B" />
        <path fill-rule="evenodd" clip-rule="evenodd"
            d="M8.55668 3.27358C8.90884 3.12468 9.31504 3.28947 9.46393 3.64163L9.98794 4.88096C10.1368 5.23314 9.97207 5.63933 9.61987 5.78822C9.2677 5.93712 8.8615 5.77233 8.71261 5.42017L8.18862 4.18084C8.03973 3.82868 8.2045 3.42248 8.55668 3.27358Z"
            fill="#52525B" />
        <path fill-rule="evenodd" clip-rule="evenodd"
            d="M3.44403 8.46154C3.3003 8.81584 3.471 9.21958 3.8253 9.36332L5.07219 9.86914C5.42649 10.0129 5.83024 9.84218 5.97397 9.48788C6.1177 9.13357 5.947 8.72983 5.59269 8.5861L4.34581 8.08026C3.9915 7.93653 3.58777 8.10723 3.44403 8.46154Z"
            fill="#52525B" />
        <path fill-rule="evenodd" clip-rule="evenodd"
            d="M12.2659 8.31809C10.1193 8.31809 8.37844 10.0589 8.37844 12.2055V13.1922C8.37844 13.5745 8.06848 13.8845 7.68613 13.8845H4.0092C3.62685 13.8845 3.31689 13.5745 3.31689 13.1922C3.31689 12.8098 3.62685 12.4999 4.0092 12.4999H6.99382V12.2055C6.99382 9.29424 9.35459 6.93347 12.2659 6.93347C15.1782 6.93347 17.5379 9.29433 17.5379 12.2055V12.4999H20.5216C20.9039 12.4999 21.2139 12.8098 21.2139 13.1922C21.2139 13.5745 20.9039 13.8845 20.5216 13.8845H16.8456C16.4632 13.8845 16.1533 13.5745 16.1533 13.1922V12.2055C16.1533 10.0588 14.4133 8.31809 12.2659 8.31809Z"
            fill="#52525B" />
        <path fill-rule="evenodd" clip-rule="evenodd"
            d="M12.7559 14.0703L15.28 16.5955C15.5503 16.866 15.5502 17.3044 15.2798 17.5746C15.0093 17.8449 14.571 17.8448 14.3007 17.5744L12.9583 16.2314V20.3196C12.9583 20.7019 12.6484 21.0119 12.266 21.0119C11.8837 21.0119 11.5737 20.7019 11.5737 20.3196V16.2313L10.231 17.5744C9.96073 17.8448 9.52234 17.8449 9.25193 17.5745C8.98152 17.3043 8.98144 16.8659 9.25177 16.5955L11.7764 14.07M12.754 14.0684C12.6191 13.9343 12.4426 13.8672 12.266 13.8672L12.754 14.0684ZM12.2638 13.8672C12.1708 13.8675 12.082 13.8861 12.0011 13.9196L12.2638 13.8672ZM12.0011 13.9196C11.9195 13.9534 11.8428 14.0037 11.7764 14.07C11.7763 14.0701 11.7765 14.0699 11.7764 14.07"
            fill="#52525B" />
    </symbol>
    <symbol id="sunset-icon" viewBox="0 0 31 32" fill="none">
        <path fill-rule="evenodd" clip-rule="evenodd"
            d="M15.3443 3.21795C15.6986 3.36169 15.8693 3.76543 15.7256 4.11974L15.2197 5.36662C15.076 5.72092 14.6722 5.89163 14.318 5.74789C13.9637 5.60415 13.7929 5.20042 13.9367 4.84611L14.4425 3.59923C14.5863 3.24493 14.99 3.07422 15.3443 3.21795Z"
            fill="#52525B" />
        <path fill-rule="evenodd" clip-rule="evenodd"
            d="M20.5313 8.33475C20.6802 8.68692 20.5154 9.09312 20.1632 9.24201L18.9239 9.766C18.5718 9.91489 18.1655 9.75012 18.0166 9.39794C17.8677 9.04578 18.0325 8.63958 18.3847 8.49069L19.6241 7.96669C19.9762 7.8178 20.3824 7.98258 20.5313 8.33475Z"
            fill="#52525B" />
        <path fill-rule="evenodd" clip-rule="evenodd"
            d="M8.05668 3.27358C8.40884 3.12468 8.81504 3.28947 8.96393 3.64163L9.48794 4.88096C9.63684 5.23314 9.47207 5.63933 9.11987 5.78822C8.7677 5.93712 8.3615 5.77233 8.21261 5.42017L7.68862 4.18084C7.53973 3.82868 7.7045 3.42248 8.05668 3.27358Z"
            fill="#52525B" />
        <path fill-rule="evenodd" clip-rule="evenodd"
            d="M2.94403 8.46154C2.8003 8.81584 2.971 9.21958 3.3253 9.36332L4.57219 9.86914C4.92649 10.0129 5.33024 9.84218 5.47397 9.48788C5.6177 9.13357 5.447 8.72983 5.09269 8.5861L3.84581 8.08026C3.4915 7.93653 3.08777 8.10723 2.94403 8.46154Z"
            fill="#52525B" />
        <path fill-rule="evenodd" clip-rule="evenodd"
            d="M11.7659 8.31809C9.61927 8.31809 7.87844 10.0589 7.87844 12.2055V13.1922C7.87844 13.5745 7.56848 13.8845 7.18613 13.8845H3.5092C3.12685 13.8845 2.81689 13.5745 2.81689 13.1922C2.81689 12.8098 3.12685 12.4999 3.5092 12.4999H6.49382V12.2055C6.49382 9.29424 8.85459 6.93347 11.7659 6.93347C14.6782 6.93347 17.0379 9.29433 17.0379 12.2055V12.4999H20.0216C20.4039 12.4999 20.7139 12.8098 20.7139 13.1922C20.7139 13.5745 20.4039 13.8845 20.0216 13.8845H16.3456C15.9632 13.8845 15.6533 13.5745 15.6533 13.1922V12.2055C15.6533 10.0588 13.9133 8.31809 11.7659 8.31809Z"
            fill="#52525B" />
        <path fill-rule="evenodd" clip-rule="evenodd"
            d="M12.2557 20.8089L14.7798 18.2836C15.0501 18.0132 15.05 17.5748 14.7795 17.3045C14.5091 17.0343 14.0708 17.0344 13.8004 17.3047L12.4581 18.6477V14.5595C12.4581 14.1772 12.1481 13.8672 11.7658 13.8672C11.3834 13.8672 11.0735 14.1772 11.0735 14.5595V18.6479L9.73076 17.3047C9.46048 17.0343 9.02209 17.0343 8.75169 17.3045C8.48127 17.5749 8.4812 18.0132 8.75152 18.2836L11.2762 20.8091M12.2557 20.8089C12.2556 20.8089 12.2557 20.8088 12.2557 20.8089V20.8089ZM12.2538 20.8107C12.1189 20.9449 11.9424 21.012 11.7658 21.012L12.2538 20.8107ZM11.7636 21.012C11.6705 21.0117 11.5818 20.9931 11.5009 20.9595L11.7636 21.012ZM11.5009 20.9595C11.4193 20.9257 11.3425 20.8755 11.2762 20.8091C11.2761 20.8091 11.2763 20.8091 11.2762 20.8091"
            fill="#52525B" />
    </symbol>
    <symbol id="moon-icon" viewBox="0 0 31 32" fill="none">
        <path
            d="M13.1722 21.7418C7.70219 21.7418 3.24219 17.2918 3.24219 11.8118C3.24219 7.40182 6.20219 3.48185 10.4322 2.27184C10.7222 2.19184 11.0922 2.31183 11.2822 2.54183C11.4822 2.79183 11.5222 3.14185 11.3622 3.43185C9.83219 6.32186 10.3722 9.96182 12.7022 12.2818C15.0222 14.6018 18.6622 15.1518 21.5522 13.6118C21.8222 13.4718 22.2122 13.5118 22.4422 13.7018C22.6722 13.8918 22.7922 14.2618 22.7122 14.5518C21.5022 18.7918 17.5722 21.7518 13.1722 21.7518V21.7418ZM9.40219 4.28182C6.60219 5.69182 4.74219 8.60183 4.74219 11.8218C4.74219 16.4718 8.52219 20.2518 13.1722 20.2518C16.3922 20.2518 19.3022 18.3918 20.7122 15.5818C17.5722 16.5518 14.0322 15.7318 11.6522 13.3418C9.27219 10.9618 8.44219 7.42182 9.41219 4.28182H9.40219Z"
            fill="#52525B" />

    </symbol>
    <symbol id="morning-icon" viewBox="0 0 31 32" fill="none">
        <path fill-rule="evenodd" clip-rule="evenodd"
            d="M12.4641 3C12.8464 3 13.1564 3.30996 13.1564 3.69231V4.95868C13.1564 5.34103 12.8464 5.65098 12.4641 5.65098C12.0818 5.65098 11.7718 5.34103 11.7718 4.95868V3.69231C11.7718 3.30996 12.0818 3 12.4641 3ZM18.8279 5.63584C19.0982 5.90621 19.0982 6.34455 18.8279 6.61492L17.9324 7.51036C17.662 7.78072 17.2237 7.78072 16.9533 7.51036C16.683 7.23999 16.683 6.80165 16.9533 6.53129L17.8488 5.63584C18.1191 5.36548 18.5575 5.36548 18.8279 5.63584ZM6.10027 5.63628C6.37063 5.36592 6.80897 5.36592 7.07934 5.63628L7.97478 6.53172C8.24514 6.80209 8.24514 7.24043 7.97478 7.51079C7.70442 7.78116 7.26607 7.78116 6.99571 7.51079L6.10027 6.61535C5.8299 6.34499 5.8299 5.90664 6.10027 5.63628ZM3.46399 12.0001C3.46399 11.6178 3.77394 11.3078 4.1563 11.3078H5.42267C5.80501 11.3078 6.11497 11.6178 6.11497 12.0001C6.11497 12.3824 5.80501 12.6924 5.42267 12.6924H4.1563C3.77394 12.6924 3.46399 12.3824 3.46399 12.0001ZM18.813 12.0001C18.813 11.6178 19.123 11.3078 19.5053 11.3078H20.7717C21.154 11.3078 21.464 11.6178 21.464 12.0001C21.464 12.3824 21.154 12.6924 20.7717 12.6924H19.5053C19.123 12.6924 18.813 12.3824 18.813 12.0001ZM7.97478 16.4894C8.24514 16.7598 8.24514 17.198 7.97478 17.4684L7.07934 18.3639C6.80897 18.6342 6.37063 18.6342 6.10027 18.3639C5.8299 18.0935 5.8299 17.6551 6.10027 17.3848L6.99571 16.4894C7.26607 16.219 7.70442 16.219 7.97478 16.4894ZM16.9533 16.4894C17.2237 16.219 17.662 16.219 17.9324 16.4894L18.8279 17.3848C19.0982 17.6551 19.0982 18.0935 18.8279 18.3639C18.5575 18.6342 18.1191 18.6342 17.8488 18.3639L16.9533 17.4684C16.683 17.198 16.683 16.7598 16.9533 16.4894ZM12.4641 18.349C12.8464 18.349 13.1564 18.659 13.1564 19.0413V20.3077C13.1564 20.69 12.8464 21 12.4641 21C12.0818 21 11.7718 20.69 11.7718 20.3077V19.0413C11.7718 18.659 12.0818 18.349 12.4641 18.349Z"
            fill="#52525B" />
        <path fill-rule="evenodd" clip-rule="evenodd"
            d="M12.464 8.82016C10.7071 8.82016 9.28354 10.2444 9.28354 12.0006C9.28354 13.7578 10.7072 15.1819 12.464 15.1819C14.2208 15.1819 15.6445 13.7578 15.6445 12.0006C15.6445 10.2444 14.2209 8.82016 12.464 8.82016ZM7.89893 12.0006C7.89893 9.4799 9.94218 7.43555 12.464 7.43555C14.9858 7.43555 17.0291 9.4799 17.0291 12.0006C17.0291 14.5221 14.986 16.5665 12.464 16.5665C9.94207 16.5665 7.89893 14.5221 7.89893 12.0006Z"
            fill="#52525B" />
    </symbol>
    <symbol id="right-arrow-icon" viewBox="0 0 31 32" fill="none">
        <path d="M8.5 5.5L15.5 12.5L8.5 19.5" stroke="#18181B" stroke-width="1.5" stroke-linecap="round"
            stroke-linejoin="round" />
    </symbol>
    <symbol id="left-arrow-icon" viewBox="0 0 31 32" fill="none">
        <path d="M15.5 19.5L8.5 12.5L15.5 5.5" stroke="#18181B" stroke-width="1.5" stroke-linecap="round"
            stroke-linejoin="round" />
    </symbol>
    <symbol id="sort-up-icon" viewBox="0 0 31 32" fill="none">

        <path fill-rule="evenodd" clip-rule="evenodd"
            d="M18.1766 7.36719C18.3755 7.3672 18.5663 7.44625 18.7069 7.58694L21.53 10.4109C21.8229 10.7039 21.8228 11.1787 21.5299 11.4716C21.2369 11.7644 20.7621 11.7644 20.4692 11.4714L18.9266 9.92833L18.9271 19.4122C18.9271 19.8264 18.5913 20.1622 18.1771 20.1622C17.7629 20.1623 17.4271 19.8265 17.4271 19.4123L17.4266 9.92776L15.8829 11.4715C15.59 11.7644 15.1151 11.7644 14.8222 11.4715C14.5293 11.1786 14.5293 10.7037 14.8222 10.4108L17.6462 7.58686C17.7869 7.44619 17.9776 7.36717 18.1766 7.36719Z"
            fill="#71717A" />
        <path fill-rule="evenodd" clip-rule="evenodd"
            d="M4.25 8.11719C4.25 7.70297 4.58579 7.36719 5 7.36719H11.589C12.0032 7.36719 12.339 7.70297 12.339 8.11719C12.339 8.5314 12.0032 8.86719 11.589 8.86719H5C4.58579 8.86719 4.25 8.5314 4.25 8.11719ZM4.25 13.7654C4.25 13.3512 4.58579 13.0154 5 13.0154H11.589C12.0032 13.0154 12.339 13.3512 12.339 13.7654C12.339 14.1796 12.0032 14.5154 11.589 14.5154H5C4.58579 14.5154 4.25 14.1796 4.25 13.7654ZM4.25 19.4127C4.25 18.9985 4.58579 18.6627 5 18.6627H13.4711C13.8853 18.6627 14.2211 18.9985 14.2211 19.4127C14.2211 19.8269 13.8853 20.1627 13.4711 20.1627H5C4.58579 20.1627 4.25 19.8269 4.25 19.4127Z"
            fill="#71717A" />
    </symbol>
    <symbol id="user-icon" viewBox="0 0 17 18" fill="none">
        <path fill-rule="evenodd" clip-rule="evenodd"
            d="M8.74378 3.86719C7.20146 3.86719 5.95117 5.11748 5.95117 6.65979C5.95117 8.20212 7.20146 9.4524 8.74378 9.4524C10.2861 9.4524 11.5364 8.20212 11.5364 6.65979C11.5364 5.11748 10.2861 3.86719 8.74378 3.86719ZM4.88867 6.65979C4.88867 4.53068 6.61466 2.80469 8.74378 2.80469C10.8729 2.80469 12.5989 4.53068 12.5989 6.65979C12.5989 8.7889 10.8729 10.5149 8.74378 10.5149C6.61466 10.5149 4.88867 8.7889 4.88867 6.65979Z"
            class="book-fill-secondary-600" />
        <path fill-rule="evenodd" clip-rule="evenodd"
            d="M3.6285 13.29C3.6285 11.2788 5.25891 9.64844 7.2701 9.64844H10.2989C12.31 9.64844 13.9405 11.2788 13.9405 13.29C13.9405 13.3485 13.941 13.4078 13.9418 13.4687C13.9556 14.4913 13.1172 15.196 12.1714 15.196H5.39757C4.45168 15.196 3.61342 14.4913 3.62712 13.4687C3.62794 13.4078 3.6285 13.3485 3.6285 13.29ZM7.2701 10.7109C5.8457 10.7109 4.691 11.8656 4.691 13.29C4.691 13.355 4.69038 13.4196 4.68953 13.4829C4.68477 13.8378 4.96573 14.1335 5.39757 14.1335H12.1714C12.6032 14.1335 12.8842 13.8378 12.8794 13.4829C12.8786 13.4196 12.878 13.355 12.878 13.29C12.878 11.8656 11.7232 10.7109 10.2989 10.7109H7.2701Z"
            class="book-fill-secondary-600" />
    </symbol>
    <symbol id="wheel-bag-icon" viewBox="0 0 18 18" fill="none">
        <path fill-rule="evenodd" clip-rule="evenodd"
            d="M4.30023 6.17747C4.85527 5.59534 5.64347 5.30469 6.56736 5.30469H11.3881C12.3128 5.30469 13.1004 5.59702 13.6544 6.17983C14.2049 6.75885 14.4652 7.56165 14.4652 8.46995V11.7876C14.4652 12.698 14.2051 13.5012 13.6544 14.0802C13.1001 14.6628 12.3125 14.9537 11.3884 14.9537H6.56753C5.6435 14.9537 4.85525 14.6628 4.30021 14.0804C3.74861 13.5015 3.48755 12.6981 3.48755 11.7869V8.46995C3.48755 7.55917 3.74858 6.75602 4.30023 6.17747ZM5.0692 6.91067C4.75213 7.2432 4.55005 7.75708 4.55005 8.46995V11.7869C4.55005 12.5002 4.7522 13.0145 5.06938 13.3474C5.38313 13.6766 5.86923 13.8912 6.56753 13.8912H11.3884C12.0867 13.8912 12.5717 13.6767 12.8847 13.3478C13.2011 13.0152 13.4027 12.501 13.4027 11.7876V8.46995C13.4027 7.75942 13.2012 7.2452 12.8844 6.91192C12.5712 6.58244 12.0858 6.36719 11.3881 6.36719H6.56736C5.86894 6.36719 5.38285 6.58171 5.0692 6.91067Z"
            fill="#71717A" />
        <path fill-rule="evenodd" clip-rule="evenodd"
            d="M6.56958 7.8125C6.86299 7.8125 7.10083 8.05036 7.10083 8.34375V12.0109C7.10083 12.3043 6.86299 12.5421 6.56958 12.5421C6.27618 12.5421 6.03833 12.3043 6.03833 12.0109V8.34375C6.03833 8.05036 6.27618 7.8125 6.56958 7.8125Z"
            fill="#71717A" />
        <path fill-rule="evenodd" clip-rule="evenodd"
            d="M8.97778 7.8125C9.27117 7.8125 9.50903 8.05036 9.50903 8.34375V12.0109C9.50903 12.3043 9.27117 12.5421 8.97778 12.5421C8.68432 12.5421 8.44653 12.3043 8.44653 12.0109V8.34375C8.44653 8.05036 8.68432 7.8125 8.97778 7.8125Z"
            fill="#71717A" />
        <path fill-rule="evenodd" clip-rule="evenodd"
            d="M11.3918 7.8125C11.6852 7.8125 11.9231 8.05036 11.9231 8.34375V12.0109C11.9231 12.3043 11.6852 12.5421 11.3918 12.5421C11.0985 12.5421 10.8606 12.3043 10.8606 12.0109V8.34375C10.8606 8.05036 11.0985 7.8125 11.3918 7.8125Z"
            fill="#71717A" />
        <path fill-rule="evenodd" clip-rule="evenodd"
            d="M6.56759 13.8906C6.861 13.8906 7.09886 14.1284 7.09888 14.4218L7.09893 15.3742C7.09895 15.6677 6.86112 15.9056 6.56772 15.9056C6.27431 15.9056 6.03645 15.6678 6.03643 15.3743L6.03638 14.4219C6.03636 14.1285 6.27419 13.8906 6.56759 13.8906ZM11.3885 13.8906C11.6819 13.8906 11.9197 14.1284 11.9197 14.4218L11.9198 15.3742C11.9198 15.6677 11.682 15.9056 11.3885 15.9056C11.0951 15.9056 10.8573 15.6678 10.8573 15.3743L10.8572 14.4219C10.8572 14.1285 11.0951 13.8906 11.3885 13.8906Z"
            fill="#71717A" />
        <path fill-rule="evenodd" clip-rule="evenodd"
            d="M6.2981 3.78006C6.2981 2.84868 7.05262 2.09375 7.98372 2.09375H9.97335C10.9045 2.09375 11.659 2.84868 11.659 3.78006V5.83586C11.659 6.12926 11.4211 6.36711 11.1277 6.36711C10.8343 6.36711 10.5965 6.12926 10.5965 5.83586V3.78006C10.5965 3.43507 10.3173 3.15625 9.97335 3.15625H7.98372C7.63982 3.15625 7.3606 3.43508 7.3606 3.78006V5.83586C7.3606 6.12926 7.12274 6.36711 6.82935 6.36711C6.53594 6.36711 6.2981 6.12926 6.2981 5.83586V3.78006Z"
            fill="#71717A" />
    </symbol>
    <symbol id="bulleted-list-icon" viewBox="0 0 18 18" fill="none">
        <path fill-rule="evenodd" clip-rule="evenodd"
            d="M5.68945 13.598C5.68945 13.3164 5.9273 13.088 6.2207 13.088H14.7211C15.0146 13.088 15.2524 13.3164 15.2524 13.598C15.2524 13.8797 15.0146 14.108 14.7211 14.108H6.2207C5.9273 14.108 5.68945 13.8797 5.68945 13.598Z"
            fill="#71717A" />
        <path fill-rule="evenodd" clip-rule="evenodd"
            d="M5.68945 9.51793C5.68945 9.23628 5.9273 9.00793 6.2207 9.00793H14.7211C15.0146 9.00793 15.2524 9.23628 15.2524 9.51793C15.2524 9.79959 15.0146 10.0279 14.7211 10.0279H6.2207C5.9273 10.0279 5.68945 9.79959 5.68945 9.51793Z"
            fill="#71717A" />
        <path fill-rule="evenodd" clip-rule="evenodd"
            d="M5.68945 5.43798C5.68945 5.15632 5.9273 4.92798 6.2207 4.92798H14.7211C15.0146 4.92798 15.2524 5.15632 15.2524 5.43798C15.2524 5.71964 15.0146 5.94798 14.7211 5.94798H6.2207C5.9273 5.94798 5.68945 5.71964 5.68945 5.43798Z"
            fill="#71717A" />
        <path fill-rule="evenodd" clip-rule="evenodd"
            d="M2.67847 5.43732C2.67847 5.05788 2.9988 4.75 3.39438 4.75C3.78954 4.75 4.1104 5.05748 4.1104 5.43732C4.1104 5.81716 3.78954 6.12464 3.39438 6.12464C2.9988 6.12464 2.67847 5.81675 2.67847 5.43732Z"
            fill="#71717A" />
        <path fill-rule="evenodd" clip-rule="evenodd"
            d="M2.67871 9.60531C2.67871 9.22587 2.99905 8.91797 3.39462 8.91797C3.78979 8.91797 4.11065 9.22546 4.11065 9.60531C4.11065 9.98516 3.78979 10.2926 3.39462 10.2926C2.99904 10.2926 2.67871 9.98475 2.67871 9.60531Z"
            fill="#71717A" />
        <path fill-rule="evenodd" clip-rule="evenodd"
            d="M2.67847 13.5974C2.67847 13.2179 2.9988 12.91 3.39438 12.91C3.78954 12.91 4.1104 13.2175 4.1104 13.5974C4.1104 13.9772 3.78954 14.2847 3.39438 14.2847C2.9988 14.2847 2.67847 13.9768 2.67847 13.5974Z"
            fill="#71717A" />
    </symbol>
    <symbol id="plane-icon" viewBox="0 0 18 18" fill="none">
        <path
            d="M15.6824 11.5478C15.6825 11.6176 15.6688 11.6867 15.6422 11.7512C15.6155 11.8157 15.5764 11.8743 15.527 11.9237C15.4777 11.973 15.4191 12.0122 15.3545 12.0388C15.2901 12.0655 15.221 12.0792 15.1512 12.0791L13.8762 12.0791C13.7976 12.0791 13.7199 12.0616 13.6488 12.0279C13.5778 11.9942 13.5151 11.9452 13.4654 11.8843L12.5551 10.7758L11.1654 10.9033L11.1356 14.5441C11.1351 14.6161 11.1201 14.6873 11.0912 14.7533C11.0624 14.8192 11.0204 14.8787 10.9678 14.9279C10.9153 14.9771 10.8532 15.0152 10.7855 15.0397C10.7178 15.0642 10.6458 15.0746 10.5739 15.0704C10.4365 15.0626 10.3026 15.0583 10.1702 15.0534C9.85349 15.0512 9.53729 15.0275 9.22385 14.9825C8.91714 14.9209 8.63084 14.7832 8.39121 14.5821C8.15158 14.381 7.96635 14.1229 7.85252 13.8315C7.3836 12.866 6.91679 11.8985 6.47266 10.921L6.47266 10.9167C5.76433 10.9238 4.95683 10.9358 4.17837 10.894C3.03229 10.8331 1.87134 10.163 1.87134 9.00067C1.87134 7.83829 3.03229 7.16821 4.17837 7.1073C4.97241 7.06479 5.79551 7.07754 6.45709 7.08817L6.4663 7.08817C6.93026 6.07809 7.39069 5.12184 7.85394 4.16771C7.96819 3.8768 8.15349 3.61911 8.39291 3.41815C8.63232 3.21727 8.91821 3.07943 9.22456 3.01738C9.53828 2.97275 9.85469 2.94909 10.1716 2.94654C10.3041 2.94159 10.4379 2.93734 10.5754 2.92954C10.6472 2.92529 10.7192 2.93578 10.7869 2.96029C10.8546 2.98472 10.9167 3.02276 10.9693 3.07199C11.0218 3.12122 11.0638 3.18065 11.0926 3.24667C11.1215 3.31268 11.1366 3.3838 11.1371 3.45584L11.1661 7.09738L12.5544 7.227L13.4632 6.10925C13.513 6.04798 13.5759 5.99854 13.6472 5.96461C13.7185 5.93068 13.7965 5.91305 13.8755 5.91305L15.1505 5.91305C15.2313 5.91297 15.3111 5.93132 15.3837 5.96681C15.4564 6.00222 15.52 6.05372 15.5697 6.11747C15.6195 6.18122 15.654 6.25545 15.6707 6.33457C15.6874 6.41362 15.6858 6.49551 15.6661 6.57392L15.0612 8.99784L15.6669 11.4217C15.6771 11.463 15.6823 11.5053 15.6824 11.5478ZM14.1241 11.0166L14.4684 11.0166L13.9952 9.12321C13.9739 9.03857 13.9739 8.95002 13.9952 8.86538L14.4684 6.97342L14.1255 6.97342L13.199 8.1195C13.1437 8.18765 13.0724 8.24105 12.9915 8.27491C12.9105 8.30877 12.8224 8.32209 12.7351 8.31359L10.5853 8.10109C10.4548 8.08819 10.3337 8.02749 10.2451 7.9308C10.1567 7.83404 10.107 7.70803 10.1057 7.57692L10.0774 4.0055C9.85002 4.00947 9.62314 4.02789 9.3981 4.06075C9.23873 4.08767 9.02764 4.17621 8.80877 4.62742C8.34339 5.58579 7.88085 6.54559 7.43956 7.5153C7.36257 7.71391 7.22365 7.88249 7.04339 7.99604C6.86312 8.10959 6.65108 8.16207 6.43866 8.14571C5.61841 8.13296 4.93559 8.12588 4.23363 8.16342C3.73 8.18963 2.93242 8.43896 2.93242 8.99571C2.93242 9.55246 3.73071 9.80179 4.23363 9.828C4.93559 9.86554 5.61841 9.85846 6.43866 9.84571C6.65116 9.82942 6.86328 9.88198 7.04355 9.99567C7.22382 10.1094 7.36271 10.2781 7.43956 10.4768C7.88085 11.4451 8.34339 12.4049 8.80877 13.3633C9.02764 13.8152 9.23873 13.903 9.3981 13.93C9.62314 13.9628 9.85002 13.9812 10.0774 13.9852L10.1057 10.4152C10.1067 10.2834 10.1568 10.1567 10.246 10.0596C10.3353 9.96266 10.4575 9.90231 10.5888 9.89034L12.7379 9.692C12.8244 9.68421 12.9115 9.69767 12.9917 9.73125C13.0718 9.76482 13.1425 9.81752 13.1976 9.88467L14.1241 11.0166Z"
            fill="#71717A" />
    </symbol>
    <symbol id="class-icon" viewBox="0 0 18 18" fill="none">
        <path fill-rule="evenodd" clip-rule="evenodd"
            d="M2.67139 6.46615C2.67139 4.60794 4.17776 3.10156 6.03597 3.10156H13.1193C14.9775 3.10156 16.4839 4.60793 16.4839 6.46615V11.5379C16.4839 13.3961 14.9775 14.9025 13.1193 14.9025H6.03597C4.17776 14.9025 2.67139 13.3961 2.67139 11.5379V6.46615ZM6.03597 4.16406C4.76457 4.16406 3.73389 5.19474 3.73389 6.46615V11.5379C3.73389 12.8093 4.76456 13.84 6.03597 13.84H13.1193C14.3907 13.84 15.4214 12.8093 15.4214 11.5379V6.46615C15.4214 5.19474 14.3907 4.16406 13.1193 4.16406H6.03597Z"
            fill="#71717A" />
        <path fill-rule="evenodd" clip-rule="evenodd"
            d="M7.65381 7.375C7.65381 7.0816 7.89166 6.84375 8.18507 6.84375H9.70912C10.0025 6.84375 10.2404 7.0816 10.2404 7.375C10.2404 7.66838 10.0025 7.90624 9.70912 7.90624H8.18507C7.89166 7.90624 7.65381 7.66838 7.65381 7.375Z"
            fill="#71717A" />
        <path fill-rule="evenodd" clip-rule="evenodd"
            d="M5.54834 10.5938C5.54834 10.3004 5.78618 10.0625 6.07959 10.0625H9.70811C10.0015 10.0625 10.2394 10.3004 10.2394 10.5938C10.2394 10.8871 10.0015 11.125 9.70811 11.125H6.07959C5.78618 11.125 5.54834 10.8871 5.54834 10.5938Z"
            fill="#71717A" />
        <path fill-rule="evenodd" clip-rule="evenodd"
            d="M12.6245 7.10156C12.9179 7.10156 13.1558 7.33941 13.1558 7.6328V10.3587C13.1558 10.6521 12.9179 10.89 12.6245 10.89C12.331 10.89 12.0933 10.6521 12.0933 10.3587V7.6328C12.0933 7.33941 12.331 7.10156 12.6245 7.10156Z"
            fill="#71717A" />
        <path fill-rule="evenodd" clip-rule="evenodd"
            d="M12.6245 3.29688C12.9179 3.29688 13.1558 3.53473 13.1558 3.82813V5.66995C13.1558 5.96336 12.9179 6.20121 12.6245 6.20121C12.331 6.20121 12.0933 5.96336 12.0933 5.66995V3.82813C12.0933 3.53473 12.331 3.29688 12.6245 3.29688Z"
            fill="#71717A" />
        <path fill-rule="evenodd" clip-rule="evenodd"
            d="M12.6245 11.7969C12.9179 11.7969 13.1558 12.0347 13.1558 12.3281V14.1699C13.1558 14.4634 12.9179 14.7012 12.6245 14.7012C12.331 14.7012 12.0933 14.4634 12.0933 14.1699V12.3281C12.0933 12.0347 12.331 11.7969 12.6245 11.7969Z"
            fill="#71717A" />
    </symbol>
    <symbol id="ticket-icon" viewBox="0 0 18 18" fill="none">
        <path
            d="M5.92773 14.5906C5.78684 14.5906 5.65171 14.5347 5.55208 14.435C5.45246 14.3354 5.39648 14.2003 5.39648 14.0594V3.85937C5.39648 3.71848 5.45246 3.58336 5.55208 3.48373C5.65171 3.3841 5.78684 3.32812 5.92773 3.32812C6.06863 3.32812 6.20376 3.3841 6.30338 3.48373C6.40301 3.58336 6.45898 3.71848 6.45898 3.85937V14.0594C6.45898 14.2003 6.40301 14.3354 6.30338 14.435C6.20376 14.5347 6.06863 14.5906 5.92773 14.5906Z"
            fill="#71717A" />
        <path
            d="M10.0254 11.1119C9.8845 11.1119 9.74935 11.0558 9.64969 10.9563C9.5501 10.8566 9.49414 10.7215 9.49414 10.5806V7.25781C9.49414 7.11692 9.5501 6.98179 9.64969 6.88216C9.74935 6.78253 9.8845 6.72656 10.0254 6.72656C10.1663 6.72656 10.3014 6.78253 10.401 6.88216C10.5006 6.98179 10.5566 7.11692 10.5566 7.25781V10.5806C10.5566 10.7215 10.5006 10.8566 10.401 10.9563C10.3014 11.0558 10.1663 11.1119 10.0254 11.1119Z"
            fill="#71717A" />
        <path
            d="M8.57981 10.2687C8.463 10.2682 8.3496 10.2292 8.25716 10.1578C8.16472 10.0863 8.09842 9.98643 8.06853 9.87352C8.03857 9.76062 8.04672 9.64098 8.09162 9.53317C8.13653 9.42529 8.2158 9.33526 8.31702 9.27704L11.2063 7.63724C11.2669 7.59644 11.3354 7.56863 11.4073 7.55551C11.4792 7.54238 11.553 7.54424 11.6242 7.56096C11.6953 7.57767 11.7623 7.60891 11.8208 7.65269C11.8793 7.69639 11.9282 7.75178 11.9644 7.81532C12.0005 7.87886 12.0232 7.94912 12.0309 8.0218C12.0387 8.09447 12.0314 8.168 12.0094 8.2377C11.9875 8.3074 11.9513 8.37186 11.9034 8.42697C11.8554 8.48207 11.7965 8.5267 11.7305 8.55808L8.84118 10.1979C8.76178 10.2441 8.67168 10.2685 8.57981 10.2687Z"
            fill="#71717A" />
        <path
            d="M11.4705 10.2694C11.3784 10.2692 11.288 10.2448 11.2084 10.1986L8.31908 8.55808C8.253 8.5267 8.1942 8.48207 8.14618 8.42697C8.09823 8.37186 8.0621 8.3074 8.04014 8.2377C8.01818 8.168 8.01089 8.09447 8.01861 8.0218C8.02633 7.94912 8.049 7.87886 8.08519 7.81532C8.12132 7.75178 8.17019 7.69639 8.22877 7.65269C8.28728 7.60891 8.35422 7.57767 8.42533 7.56096C8.49652 7.54424 8.57033 7.54238 8.64223 7.55551C8.71412 7.56863 8.78255 7.59644 8.84325 7.63724L11.729 9.27774C11.8302 9.33597 11.9093 9.42593 11.9543 9.53367C11.9992 9.6414 12.0074 9.76104 11.9776 9.87388C11.9477 9.98679 11.8816 10.0867 11.7892 10.1581C11.6969 10.2297 11.5837 10.2688 11.4669 10.2694H11.4705Z"
            fill="#71717A" />
        <path
            d="M12.4319 14.7017H5.91944C5.38141 14.7376 4.841 14.7004 4.31294 14.5912C3.85374 14.4598 3.43554 14.2136 3.09773 13.876C2.75993 13.5382 2.51363 13.1202 2.38203 12.661C2.27263 12.1332 2.23546 11.593 2.27153 11.0552V9.528C2.27153 8.67445 2.27578 7.8202 2.27153 6.95748C2.23486 6.41761 2.2718 5.87524 2.38132 5.34532C2.51268 4.8862 2.75872 4.46805 3.09628 4.13025C3.43383 3.79245 3.8518 3.54611 4.31082 3.41441C4.84013 3.30389 5.38206 3.26623 5.92157 3.30248H12.429C12.97 3.26603 13.5134 3.30392 14.044 3.41511C14.5017 3.5468 14.9184 3.79253 15.2551 4.12926C15.5919 4.466 15.8376 4.88271 15.9693 5.34036C16.0798 5.87087 16.1174 6.41396 16.0812 6.95464C16.086 7.0891 16.0792 7.22372 16.0607 7.35698C16.0461 7.47839 16.0057 7.59531 15.9423 7.69986C15.8789 7.80441 15.7939 7.89423 15.693 7.96329C15.5185 8.08179 15.3344 8.18556 15.1427 8.27354C15.0083 8.34069 14.8951 8.44361 14.8156 8.57104C14.736 8.69847 14.6933 8.84538 14.692 8.99554C14.6908 9.14578 14.7311 9.2934 14.8085 9.4221C14.8859 9.5508 14.9974 9.65564 15.1306 9.72491C15.3265 9.81558 15.5146 9.92218 15.693 10.0437C15.7943 10.1129 15.8795 10.203 15.9431 10.308C16.0066 10.413 16.047 10.5303 16.0614 10.6521C16.0786 10.7843 16.085 10.9177 16.0805 11.0509C16.1173 11.5914 16.0796 12.1343 15.9686 12.6645C15.837 13.1224 15.5914 13.5394 15.2547 13.8764C14.9179 14.2133 14.5011 14.4593 14.0433 14.5912C13.5136 14.7009 12.9716 14.7381 12.4319 14.7017ZM5.9244 4.36002C5.48492 4.33279 5.04375 4.35656 4.60973 4.43086C4.32348 4.51319 4.06282 4.66686 3.85219 4.87748C3.64158 5.0881 3.4879 5.34877 3.40557 5.63502C3.33221 6.06938 3.30845 6.51067 3.33473 6.95039C3.33828 7.81383 3.33473 8.6702 3.33473 9.52587V11.0509C3.30751 11.4895 3.33128 11.9297 3.40557 12.3627C3.48747 12.6493 3.64101 12.9101 3.85169 13.1208C4.06238 13.3315 4.32326 13.485 4.60973 13.5669C5.04279 13.6413 5.48302 13.665 5.92157 13.6377H12.4333C12.8739 13.6654 13.3163 13.6417 13.7515 13.5669C14.0378 13.4848 14.2986 13.3312 14.5093 13.1205C14.7199 12.9099 14.8735 12.6491 14.9557 12.3627C15.0296 11.928 15.0533 11.4862 15.0265 11.046C15.0265 10.9645 15.0265 10.9043 15.0265 10.8675C14.945 10.8172 14.8253 10.7548 14.6433 10.6592C14.3389 10.5006 14.0838 10.2615 13.9058 9.96808C13.7278 9.67455 13.6337 9.33788 13.6337 8.99462C13.6337 8.65143 13.7278 8.31476 13.9058 8.02123C14.0838 7.72777 14.3389 7.4887 14.6433 7.33007C14.8352 7.22949 14.9557 7.16785 15.0215 7.13031C15.0265 7.07435 15.0258 7.02053 15.0258 6.94545C15.0535 6.50455 15.0298 6.06191 14.955 5.62652C14.8724 5.34073 14.7187 5.0806 14.508 4.87058C14.2974 4.66056 14.0368 4.50754 13.7508 4.4259C13.3156 4.35114 12.8732 4.32736 12.4326 4.35506L5.9244 4.36002Z"
            fill="#71717A" />
    </symbol>
    <symbol id="hour-icon" viewBox="0 0 16 16" fill="none">
        <path fill-rule="evenodd" clip-rule="evenodd"
            d="M8.00002 2.6875C5.06635 2.6875 2.6875 5.06579 2.6875 8.00001C2.6875 10.9336 5.06638 13.3125 8.00002 13.3125C10.9342 13.3125 13.3125 10.9336 13.3125 8.00001C13.3125 5.06576 10.9342 2.6875 8.00002 2.6875ZM1.75 8.00001C1.75 4.54796 4.54865 1.75 8.00002 1.75C11.452 1.75 14.25 4.54799 14.25 8.00001C14.25 11.4514 11.452 14.25 8.00002 14.25C4.54861 14.25 1.75 11.4514 1.75 8.00001Z"
            fill="#71717A" />
        <path fill-rule="evenodd" clip-rule="evenodd"
            d="M7.78711 4.92969C8.04605 4.92969 8.25586 5.13956 8.25586 5.39844V7.96663L10.626 8.00538C10.8849 8.00963 11.0913 8.22288 11.087 8.48169C11.0829 8.74057 10.8696 8.94701 10.6107 8.94276L7.77948 8.89651C7.52361 8.89232 7.31836 8.68369 7.31836 8.42782V5.39844C7.31836 5.13956 7.52823 4.92969 7.78711 4.92969Z"
            fill="#71717A" />

    </symbol>
    <symbol id="flight-icon" viewBox="0 0 26 26" fill="none">
        <path
            d="M9.64292 11.4211L15.2022 3L17.4005 3L14.6212 11.4211L20.5181 11.4211L22.3513 8.26628L24 8.26628L22.9009 13.003L24 17.7397L22.3513 17.7397L20.5173 14.5849L14.6228 14.5849L17.4028 23L15.2046 23L9.64292 14.5789L3.6487 14.5789C3.21144 14.5789 2.79209 14.4127 2.48289 14.1169C2.1737 13.8211 2 13.4199 2 13.0015C2 12.5831 2.1737 12.1819 2.48289 11.8861C2.79209 11.5903 3.21144 11.4241 3.6487 11.4241L9.64292 11.4211Z"
            class="book-fill-secondary-500" />
    </symbol>
    <symbol id="pin-icon" viewBox="0 0 17 18" fill="none">
        <path xmlns="http://www.w3.org/2000/svg" fill-rule="evenodd" clip-rule="evenodd"
            d="M8.85354 9.87092C7.77617 9.87092 6.89925 8.99401 6.89925 7.91663C6.89925 6.83926 7.77617 5.96234 8.85354 5.96234C9.93092 5.96234 10.8071 6.83926 10.8071 7.91663C10.8071 8.99401 9.93092 9.87092 8.85354 9.87092ZM8.85354 2.27405C5.71917 2.27405 3.16846 4.82476 3.16846 7.95984C3.16846 11.952 7.83779 15.7324 8.85354 15.7324C9.86929 15.7324 14.5386 11.952 14.5386 7.95984C14.5386 4.82476 11.9879 2.27405 8.85354 2.27405Z"
            fill="#18181B" />
    </symbol>
    <symbol id="tag-icon" viewBox="0 0 24 30" fill="none">
        <path fill-rule="evenodd" clip-rule="evenodd"
            d="M11.5655 2.35148C7.11144 2.57671 3.67011 6.38463 3.8954 10.8397C4.18228 16.5126 10.6114 22.0778 12.0548 22.0049C13.4982 21.9319 20.3396 15.6956 20.0527 10.0226C19.8274 5.56757 16.0195 2.12624 11.5655 2.35148Z"
            class="book-fill-secondary-500" />
        <path d="M10.893 7.188L11.793 7.092L12.561 14.952L11.661 15.048L10.893 7.188Z" fill="white" />
        <circle cx="12" cy="27" r="3" class="book-fill-secondary-500" />
    </symbol>
    <symbol id="tag-details-icon" viewBox="0 0 24 30" fill="none">
        <path fill-rule="evenodd" clip-rule="evenodd"
            d="M11.5655 2.35148C7.11144 2.57671 3.67011 6.38463 3.8954 10.8397C4.18228 16.5126 10.6114 22.0778 12.0548 22.0049C13.4982 21.9319 20.3396 15.6956 20.0527 10.0226C19.8274 5.56757 16.0195 2.12624 11.5655 2.35148Z"
            class="book-fill-primary-400" />
        <path d="M10.893 7.188L11.793 7.092L12.561 14.952L11.661 15.048L10.893 7.188Z" fill="white" />
        <circle cx="12" cy="27" r="3" class="book-fill-primary-400" />
    </symbol>
    <symbol id="close-icon" viewBox="0 0 28 28" fill="none">
        <path d="M7 7L21 21" stroke="#71717A" stroke-width="1.5" stroke-linecap="round" stroke-linejoin="round" />
        <path d="M21 7L7 21" stroke="#71717A" stroke-width="1.5" stroke-linecap="round" stroke-linejoin="round" />
    </symbol>
    <symbol id="plane-rotate-icon" viewBox="0 0 21 20" fill="none">
        <path
            d="M13.4778 18.1307C13.3958 18.1308 13.3146 18.1147 13.2388 18.0834C13.1631 18.0521 13.0942 18.0062 13.0362 17.9482L11.8212 16.7323C11.7556 16.6667 11.7053 16.5872 11.6743 16.4997C11.6431 16.4123 11.6318 16.3189 11.6412 16.2265L11.8453 14.2507L10.2945 12.974L6.74282 16.4682C6.68441 16.5301 6.61303 16.5783 6.5338 16.6095C6.45457 16.6406 6.36943 16.6538 6.28448 16.6482C6.19996 16.6453 6.11688 16.6254 6.04027 16.5896C5.96364 16.5538 5.89507 16.5029 5.83865 16.4398C5.71782 16.3048 5.59615 16.1748 5.47615 16.0465C5.17738 15.7418 4.89899 15.4178 4.64282 15.0765C4.4187 14.7372 4.28314 14.347 4.24849 13.9418C4.21384 13.5365 4.28123 13.1291 4.44448 12.7565C4.91782 11.3915 5.39365 10.0273 5.90115 8.67317C5.90969 8.65084 5.91693 8.62809 5.92282 8.60484C5.91448 8.59817 5.89782 8.579 5.87115 8.554C5.19532 7.8982 4.43115 7.1557 3.72365 6.3707C2.75449 5.28904 2.21282 3.61487 3.33032 2.4982C4.44782 1.38154 6.12115 1.92153 7.20448 2.89486C7.94448 3.56153 8.63032 4.2607 9.38617 5.0407C9.404 5.0601 9.42325 5.0782 9.44367 5.09486C9.45284 5.08986 9.4745 5.0832 9.50533 5.07236C10.8595 4.56486 12.2237 4.0882 13.5887 3.61486C13.9609 3.452 14.368 3.38477 14.7729 3.41926C15.1778 3.45375 15.5676 3.58888 15.907 3.81237C16.2452 4.06495 16.5661 4.33972 16.8678 4.63487C16.9987 4.75737 17.132 4.88487 17.2703 5.00487C17.3336 5.06118 17.3847 5.12975 17.4207 5.20644C17.4566 5.28312 17.4766 5.3663 17.4793 5.45094C17.4822 5.53557 17.4678 5.61989 17.4369 5.69878C17.4062 5.77767 17.3597 5.84949 17.3003 5.90987L13.8087 9.45984L15.0928 11.004L17.0612 10.809C17.1527 10.7998 17.245 10.8113 17.3315 10.8424C17.4181 10.8736 17.4965 10.9237 17.5612 10.989L18.7762 12.204C18.8434 12.2709 18.8946 12.3523 18.9258 12.4419C18.9568 12.5315 18.9673 12.627 18.956 12.7212C18.9448 12.8154 18.9122 12.9058 18.8608 12.9856C18.8094 13.0653 18.7406 13.1323 18.6595 13.1815L15.7545 14.924L14.012 17.8273C13.9631 17.9089 13.8963 17.9783 13.8166 18.0302C13.7368 18.082 13.6463 18.1149 13.552 18.1265C13.5274 18.1295 13.5026 18.1309 13.4778 18.1307ZM12.9153 16.059L13.3545 16.4973L14.7645 14.1473C14.8175 14.0595 14.891 13.9858 14.9787 13.9323L17.3295 12.5215L16.8903 12.0823L14.8862 12.2807C14.7844 12.2908 14.6818 12.2758 14.5872 12.237C14.4926 12.1983 14.409 12.1368 14.3437 12.0582L12.4862 9.824C12.3883 9.70517 12.3378 9.55442 12.3443 9.40067C12.3508 9.24692 12.4138 9.10092 12.5212 8.99067L15.957 5.4982C15.7128 5.25939 15.4534 5.0367 15.1803 4.83154C14.9853 4.69237 14.6753 4.56237 13.9978 4.79904C12.6428 5.2682 11.2887 5.74154 9.94534 6.24404C9.69892 6.35297 9.42392 6.37936 9.16125 6.3193C8.8986 6.25923 8.66239 6.11591 8.48782 5.9107C7.74865 5.1482 7.07948 4.46487 6.36865 3.82737C5.83948 3.35237 4.78532 2.8107 4.21449 3.3857C3.64365 3.9607 4.18032 5.0107 4.65615 5.53987C5.33448 6.28987 6.08282 7.01986 6.73948 7.6607C6.94452 7.83522 7.08773 8.07127 7.14778 8.33374C7.20784 8.59617 7.18155 8.87109 7.07282 9.11734C6.57282 10.4598 6.09699 11.814 5.62699 13.1698C5.39199 13.8465 5.52199 14.1573 5.66115 14.3523C5.86629 14.6254 6.08898 14.8849 6.32782 15.129L9.82033 11.6923C9.93034 11.5847 10.0762 11.5214 10.23 11.5147C10.3838 11.5079 10.5346 11.5581 10.6537 11.6557L12.8995 13.5015C12.9789 13.5672 13.0409 13.6514 13.08 13.7468C13.1192 13.8422 13.1341 13.9457 13.1237 14.0482L12.9153 16.059Z"
            fill="#71717A" />

    </symbol>
    <symbol id="flight-rule-icon" viewBox="0 0 21 20" fill="none">

        <path
            d="M15.5835 16.7072C15.4443 16.7072 15.3743 16.7072 15.3068 16.7013C14.8536 16.671 14.4197 16.5058 14.061 16.2272C14.016 16.1922 13.9693 16.1522 13.8893 16.0813C13.779 15.9756 13.6627 15.8762 13.541 15.7838C13.3689 15.667 13.1657 15.6045 12.9577 15.6045C12.7496 15.6045 12.5464 15.667 12.3743 15.7838C12.2633 15.8664 12.1578 15.956 12.0585 16.0522C11.9418 16.1547 11.8918 16.1947 11.8485 16.2306C11.4886 16.5099 11.0532 16.6748 10.5985 16.7038C10.5352 16.7088 10.466 16.7097 10.3268 16.7097H6.9368C6.37437 16.7453 5.80968 16.7081 5.2568 16.5988C4.73486 16.4538 4.25927 16.1763 3.87614 15.7934C3.49302 15.4104 3.21537 14.9349 3.07013 14.4131C2.96014 13.8597 2.92261 13.2944 2.95847 12.7313C2.95373 12.5793 2.9593 12.4269 2.97513 12.2755L2.98847 12.1738C3.00327 11.9578 3.0977 11.7551 3.25347 11.6047L3.32347 11.528C3.3893 11.4522 3.49013 11.3697 4.22263 10.7505C4.33207 10.6634 4.42157 10.5538 4.48512 10.4292C4.54865 10.3046 4.58474 10.1677 4.59097 10.028C4.5955 9.88008 4.56556 9.73317 4.50351 9.59883C4.44147 9.46442 4.34901 9.34633 4.23347 9.25383C3.92337 9.02558 3.62599 8.78042 3.34263 8.51967L3.28847 8.4605C3.11624 8.30126 3.01057 8.08277 2.99263 7.84887L2.9793 7.76552C2.96327 7.61275 2.95742 7.45907 2.9618 7.30552C2.92319 6.72915 2.9613 6.15022 3.07513 5.58388C3.22066 5.06522 3.49717 4.59271 3.87807 4.2118C4.25898 3.8309 4.73147 3.55438 5.25013 3.40886C5.81047 3.29642 6.38314 3.25803 6.95347 3.2947H10.3335C10.4727 3.2947 10.5418 3.29469 10.6093 3.30052C11.0625 3.33109 11.4962 3.49619 11.8552 3.77469C11.9002 3.80969 11.9468 3.84971 12.0268 3.92054C12.1383 4.02699 12.2557 4.12713 12.3785 4.22053C12.5507 4.33718 12.7538 4.39954 12.9618 4.39954C13.1697 4.39954 13.373 4.33718 13.5452 4.22053C13.6553 4.13743 13.7606 4.04782 13.8602 3.9522C13.9768 3.8497 14.0268 3.80971 14.0702 3.77387C14.4301 3.49467 14.8655 3.32978 15.3202 3.30052C15.3852 3.29552 15.4552 3.2947 15.5943 3.2947C15.9212 3.28269 16.2485 3.29522 16.5735 3.33218C17.2287 3.43313 17.8348 3.7404 18.3036 4.20931C18.7723 4.67822 19.0794 5.28437 19.1802 5.93971C19.2162 6.26225 19.2285 6.58702 19.2168 6.91137V7.28553C19.2214 7.44436 19.2156 7.6033 19.1993 7.76136L19.1868 7.84469C19.169 8.07953 19.063 8.29894 18.8902 8.45883L18.8327 8.52225C18.5647 8.76592 18.2846 8.99592 17.9935 9.21133C17.8674 9.30058 17.7645 9.41858 17.6932 9.5555C17.6218 9.6925 17.5842 9.84442 17.5835 9.99883C17.5812 10.1429 17.6124 10.2857 17.6744 10.4158C17.7364 10.5458 17.8277 10.6598 17.941 10.7488C18.252 10.9785 18.5505 11.2247 18.8352 11.4863L18.8902 11.5463C19.0629 11.7056 19.1687 11.9246 19.186 12.1588L19.1985 12.2422C19.2157 12.3999 19.2218 12.5587 19.2168 12.7172V13.0914C19.2288 13.4157 19.2162 13.7406 19.1793 14.063C19.0783 14.7196 18.7697 15.3265 18.2989 15.7951C17.8281 16.2637 17.2197 16.5693 16.5627 16.6672C16.2377 16.7052 15.9104 16.7186 15.5835 16.7072ZM4.2168 12.3972L4.20847 12.458C4.2043 12.5047 4.20847 12.5855 4.20847 12.7288C4.18257 13.1803 4.20492 13.6331 4.27513 14.0797C4.3622 14.3922 4.52832 14.6772 4.75747 14.9069C4.98663 15.1367 5.2711 15.3035 5.58347 15.3913C6.0299 15.4608 6.4824 15.4828 6.93347 15.4572H10.3335C10.426 15.4572 10.4735 15.4572 10.5185 15.4572C10.726 15.4438 10.9248 15.3687 11.0893 15.2413C11.1202 15.2172 11.1502 15.1913 11.201 15.1455C11.3538 15.0012 11.5158 14.8668 11.686 14.743C12.0629 14.4884 12.5073 14.3523 12.9622 14.3523C13.4171 14.3523 13.8616 14.4884 14.2385 14.743C14.3968 14.8573 14.5474 14.9821 14.6893 15.1163C14.7727 15.188 14.8002 15.2138 14.8302 15.2372C14.9936 15.3642 15.1912 15.4397 15.3977 15.4538C15.4477 15.4538 15.4952 15.4538 15.5877 15.4538C15.8492 15.4626 16.1112 15.4551 16.3718 15.4313C16.7653 15.3713 17.1295 15.1873 17.4111 14.9059C17.6927 14.6246 17.8772 14.2607 17.9377 13.8672C17.9613 13.6079 17.9688 13.3474 17.9602 13.0872V12.713C17.9602 12.563 17.9602 12.4797 17.9602 12.4255L17.9093 12.3247C17.8552 12.2747 17.6085 12.0805 17.1593 11.7205C16.9009 11.5136 16.6923 11.2512 16.549 10.9527C16.4057 10.6542 16.3313 10.3274 16.3313 9.99633C16.3313 9.66533 16.4057 9.3385 16.549 9.04C16.6923 8.74158 16.9009 8.47917 17.1593 8.27219C17.6302 7.89719 17.8602 7.71719 17.9285 7.65386L17.9618 7.56386C17.966 7.51636 17.9618 7.4322 17.9618 7.2822V6.90803C17.9705 6.64782 17.9629 6.38731 17.9393 6.12803C17.8787 5.73488 17.6944 5.37127 17.4132 5.09C17.1319 4.80872 16.7683 4.62444 16.3752 4.56388C16.1139 4.54019 15.8514 4.53267 15.5893 4.54137C15.4952 4.54137 15.4485 4.54137 15.4035 4.54137C15.196 4.55501 14.9972 4.63015 14.8327 4.7572C14.8018 4.78137 14.7718 4.8072 14.721 4.85302C14.5691 4.99669 14.4082 5.13056 14.2393 5.25385C13.8619 5.50847 13.4171 5.6445 12.9618 5.6445C12.5066 5.6445 12.0617 5.50847 11.6843 5.25385C11.5257 5.13882 11.3748 5.01357 11.2327 4.87887C11.1493 4.8072 11.1218 4.78138 11.0918 4.75804C10.9277 4.63096 10.7297 4.55552 10.5227 4.54137C10.476 4.54137 10.4302 4.54137 10.3352 4.54137H6.95097C6.49345 4.51488 6.03441 4.5378 5.5818 4.6097C5.27085 4.69778 4.98776 4.86427 4.75967 5.09322C4.53159 5.32218 4.36617 5.60592 4.2793 5.9172C4.20692 6.3692 4.18428 6.82777 4.2118 7.28469C4.2118 7.44136 4.2118 7.52219 4.21597 7.57469L4.26597 7.67219C4.32013 7.72219 4.56597 7.91554 5.01597 8.27387C5.27491 8.48075 5.48366 8.7435 5.62653 9.04258C5.76942 9.34158 5.84272 9.66908 5.84097 10.0005C5.83756 10.3205 5.76574 10.636 5.63035 10.9259C5.49495 11.2158 5.29911 11.4734 5.05597 11.6813C4.5643 12.0938 4.31263 12.3038 4.24263 12.3713L4.2168 12.3972Z"
            fill="#71717A" />
        <path
            d="M14.1571 10.6217H8.53957C8.43819 10.6218 8.33832 10.5971 8.24859 10.5499C8.15886 10.5028 8.08197 10.4343 8.02458 10.3508L7.49374 9.57918C7.39982 9.44243 7.36403 9.27401 7.39427 9.11093C7.42452 8.94784 7.5183 8.80351 7.65499 8.70959C7.79169 8.61568 7.96011 8.57984 8.12318 8.61009C8.28626 8.64034 8.43065 8.73409 8.52457 8.87084L8.86874 9.37084H14.1571C14.3228 9.37084 14.4818 9.43668 14.599 9.55384C14.7162 9.67109 14.7821 9.83009 14.7821 9.99584C14.7821 10.1616 14.7162 10.3205 14.599 10.4378C14.4818 10.555 14.3228 10.6208 14.1571 10.6208V10.6217Z"
            fill="#71717A" />
        <path
            d="M10.2495 12.8972C10.1346 12.8973 10.0219 12.8656 9.92378 12.8056C9.82569 12.7457 9.74603 12.6599 9.69369 12.5576C9.64128 12.4553 9.61811 12.3405 9.62678 12.2259C9.63553 12.1113 9.67569 12.0013 9.74286 11.9081L10.3545 11.0556C10.4512 10.9208 10.5974 10.8301 10.7611 10.8032C10.9247 10.7763 11.0924 10.8155 11.227 10.9122C11.3618 11.0089 11.4525 11.1551 11.4794 11.3188C11.5063 11.4824 11.467 11.65 11.3704 11.7847L10.7579 12.6372C10.7 12.718 10.6237 12.7837 10.5353 12.829C10.4469 12.8741 10.3489 12.8976 10.2495 12.8972Z"
            fill="#71717A" />
        <path
            d="M12.2858 10.6226C12.1978 10.6228 12.1108 10.6044 12.0305 10.5684C11.9502 10.5325 11.8784 10.4799 11.8199 10.4143L9.78661 8.14007C9.73136 8.07898 9.6887 8.00758 9.66111 7.92996C9.63353 7.85233 9.62153 7.77002 9.62586 7.68775C9.63028 7.60548 9.65078 7.52489 9.68645 7.4506C9.72203 7.37631 9.77195 7.30978 9.83336 7.25486C9.89478 7.19993 9.96645 7.1577 10.0442 7.13058C10.1219 7.10344 10.2044 7.09195 10.2866 7.09678C10.3689 7.1016 10.4494 7.12264 10.5234 7.15868C10.5975 7.19471 10.6637 7.24502 10.7183 7.30673L12.7491 9.58177C12.8299 9.67152 12.8829 9.78285 12.9017 9.90218C12.9205 10.0215 12.9043 10.1438 12.8549 10.254C12.8056 10.3644 12.7254 10.4579 12.6239 10.5235C12.5224 10.589 12.4041 10.6238 12.2833 10.6234L12.2858 10.6226Z"
            fill="#71717A" />

    </symbol>
    <symbol id="check-circle-icon" viewBox="0 0 17 16" fill="none">
        <path fill-rule="evenodd" clip-rule="evenodd"
            d="M10.9953 6.81402L7.91667 9.89268C7.81867 9.99068 7.69133 10.0393 7.56333 10.0393C7.43467 10.0393 7.30733 9.99068 7.20933 9.89268L5.67 8.35335C5.47467 8.15802 5.47467 7.84135 5.67 7.64602C5.86533 7.45068 6.18133 7.45068 6.37667 7.64602L7.56333 8.83202L10.288 6.10668C10.4833 5.91135 10.8 5.91135 10.9953 6.10668C11.1907 6.30202 11.1907 6.61868 10.9953 6.81402ZM8.33333 1.66602C4.84133 1.66602 2 4.50735 2 7.99935C2 11.492 4.84133 14.3327 8.33333 14.3327C11.8253 14.3327 14.6667 11.492 14.6667 7.99935C14.6667 4.50735 11.8253 1.66602 8.33333 1.66602Z"
            fill="#3F3F46" />
    </symbol>
    <symbol id="dash-circle-icon" viewBox="0 0 17 16" fill="none">
        <path fill-rule="evenodd" clip-rule="evenodd"
            d="M8.33333 1.66602C4.84133 1.66602 2 4.50735 2 7.99935C2 11.492 4.84133 14.3327 8.33333 14.3327C11.8253 14.3327 14.6667 11.492 14.6667 7.99935C14.6667 4.50735 11.8253 1.66602 8.33333 1.66602Z"
            fill="#A1A1AA" />
        <path d="M5.33325 8H11.3333" stroke="white" stroke-linecap="round" />

    </symbol>
    <symbol id="path-icon" viewBox="0 0 26 30" fill="none">


        <path
            d="M10.9474 19.5778L-4.25759e-07 11.997L-4.96651e-07 8.99936L10.9474 12.7892L10.9474 4.74806L6.84616 2.24823L6.84616 6.46277e-07L13.0039 1.49882L19.1616 2.30736e-07L19.1616 2.24823L15.0604 4.74912L15.0604 12.7871L26 8.99615L26 11.9938L15.0526 19.5778L15.0526 27.7518C15.0526 28.348 14.8365 28.9199 14.452 29.3415C14.0674 29.7631 13.5458 30 13.002 30C12.4581 30 11.9365 29.7631 11.5519 29.3415C11.1674 28.9199 10.9513 28.348 10.9513 27.7518L10.9474 19.5778Z"
            class="book-fill-primary-400" />


    </symbol>
    <symbol id="plane-details-icon" viewBox="0 0 25 24" fill="none">
        <path xmlns="http://www.w3.org/2000/svg"
            d="M15.9233 21.7568C15.8249 21.7569 15.7274 21.7376 15.6365 21.7001C15.5456 21.6625 15.4629 21.6074 15.3933 21.5378L13.9353 20.0788C13.8566 20 13.7963 19.9046 13.759 19.7996C13.7216 19.6947 13.7081 19.5827 13.7193 19.4718L13.9643 17.1008L12.1033 15.5688L7.84128 19.7618C7.77119 19.8361 7.68554 19.894 7.59046 19.9314C7.49538 19.9687 7.39321 19.9846 7.29128 19.9778C7.18985 19.9744 7.09016 19.9505 6.99822 19.9075C6.90627 19.8646 6.82398 19.8035 6.75628 19.7278C6.61128 19.5658 6.46528 19.4098 6.32128 19.2558C5.96275 18.8902 5.62869 18.5014 5.32128 18.0918C5.05234 17.6846 4.88966 17.2164 4.84809 16.7301C4.80651 16.2438 4.88737 15.7549 5.08328 15.3078C5.65128 13.6698 6.22228 12.0328 6.83128 10.4078C6.84153 10.381 6.85021 10.3537 6.85728 10.3258C6.84728 10.3178 6.82728 10.2948 6.79528 10.2648C5.98428 9.47783 5.06728 8.58685 4.21828 7.64485C3.05528 6.34685 2.40528 4.33784 3.74628 2.99784C5.08728 1.65784 7.09528 2.30583 8.39528 3.47383C9.28328 4.27383 10.1063 5.11284 11.0133 6.04884C11.0347 6.07212 11.0578 6.09383 11.0823 6.11383C11.0933 6.10783 11.1193 6.09983 11.1563 6.08683C12.7813 5.47783 14.4183 4.90583 16.0563 4.33783C16.503 4.1424 16.9915 4.06172 17.4774 4.10311C17.9632 4.1445 18.431 4.30665 18.8383 4.57484C19.2441 4.87793 19.6292 5.20766 19.9913 5.56184C20.1483 5.70884 20.3083 5.86184 20.4743 6.00584C20.5502 6.07341 20.6115 6.1557 20.6547 6.24772C20.6978 6.33974 20.7218 6.43955 20.7251 6.54112C20.7285 6.64268 20.7112 6.74387 20.6742 6.83853C20.6373 6.93321 20.5815 7.01939 20.5103 7.09185L16.3203 11.3518L17.8613 13.2048L20.2233 12.9708C20.3331 12.9598 20.4439 12.9735 20.5477 13.0109C20.6516 13.0483 20.7457 13.1084 20.8233 13.1868L22.2813 14.6448C22.362 14.7251 22.4234 14.8227 22.4608 14.9303C22.4981 15.0378 22.5106 15.1524 22.4971 15.2654C22.4836 15.3785 22.4445 15.487 22.3829 15.5827C22.3212 15.6784 22.2386 15.7588 22.1413 15.8178L18.6553 17.9088L16.5643 21.3928C16.5056 21.4907 16.4254 21.5739 16.3298 21.6362C16.2341 21.6984 16.1255 21.7379 16.0123 21.7518C15.9828 21.7554 15.953 21.7571 15.9233 21.7568ZM15.2483 19.2708L15.7753 19.7968L17.4673 16.9768C17.5309 16.8714 17.6191 16.7829 17.7243 16.7188L20.5453 15.0258L20.0183 14.4988L17.6133 14.7368C17.4912 14.749 17.368 14.731 17.2545 14.6844C17.141 14.6379 17.0407 14.5642 16.9623 14.4698L14.7333 11.7888C14.6159 11.6462 14.5553 11.4653 14.5631 11.2808C14.5708 11.0963 14.6464 10.9211 14.7753 10.7888L18.8983 6.59783C18.6053 6.31126 18.294 6.04404 17.9663 5.79784C17.7323 5.63084 17.3603 5.47484 16.5473 5.75884C14.9213 6.32184 13.2963 6.88984 11.6843 7.49284C11.3886 7.62356 11.0586 7.65523 10.7434 7.58315C10.4282 7.51108 10.1448 7.3391 9.93528 7.09284C9.04828 6.17785 8.24528 5.35784 7.39228 4.59284C6.75728 4.02284 5.49228 3.37284 4.80728 4.06284C4.12228 4.75284 4.76628 6.01284 5.33728 6.64784C6.15128 7.54784 7.04928 8.42383 7.83728 9.19283C8.08332 9.40226 8.25517 9.68553 8.32724 10.0005C8.39931 10.3154 8.36776 10.6453 8.23728 10.9408C7.63728 12.5518 7.06628 14.1768 6.50228 15.8038C6.22028 16.6158 6.37628 16.9888 6.54328 17.2228C6.78945 17.5505 7.05668 17.8619 7.34328 18.1548L11.5343 14.0308C11.6663 13.9016 11.8413 13.8257 12.0259 13.8176C12.2104 13.8095 12.3914 13.8697 12.5343 13.9868L15.2293 16.2018C15.3246 16.2806 15.399 16.3817 15.4459 16.4961C15.4929 16.6106 15.5108 16.7348 15.4983 16.8578L15.2483 19.2708Z"
            class="book-fill-primary-400" />
    </symbol>
    <symbol id="class-details-icon" viewBox="0 0 25 24" fill="none">
        <path
            d="M8.46264 15.5542C8.33129 15.5547 8.20218 15.5202 8.08864 15.4542C8.00327 15.4051 7.92843 15.3396 7.86839 15.2616C7.80836 15.1835 7.76431 15.0943 7.73877 14.9992C7.71322 14.9041 7.70669 14.8049 7.71953 14.7073C7.73238 14.6096 7.76436 14.5155 7.81364 14.4302L11.0636 8.80119C11.1631 8.6288 11.3269 8.50298 11.5192 8.45141C11.7114 8.39984 11.9162 8.42674 12.0886 8.5262C12.261 8.62565 12.3868 8.78951 12.4384 8.98173C12.49 9.17396 12.4631 9.3788 12.3636 9.55119L9.11364 15.1802C9.04764 15.2943 8.95269 15.389 8.83838 15.4547C8.72408 15.5203 8.59446 15.5547 8.46264 15.5542Z"
            class="book-fill-primary-400" />
        <path
            d="M11.9537 14.8156C11.8013 14.8149 11.6527 14.7678 11.5277 14.6806C11.4026 14.5935 11.3071 14.4703 11.2537 14.3276L10.2657 11.6836L7.48174 12.1506C7.28548 12.1835 7.08419 12.137 6.92216 12.0215C6.76013 11.906 6.65063 11.7308 6.61774 11.5346C6.58485 11.3383 6.63128 11.137 6.7468 10.975C6.86232 10.813 7.03748 10.7035 7.23374 10.6706L10.6287 10.1016C10.8004 10.0736 10.9765 10.1059 11.1271 10.193C11.2777 10.2801 11.3935 10.4167 11.4547 10.5796L12.6547 13.8036C12.724 13.9899 12.7164 14.1961 12.6337 14.3768C12.551 14.5576 12.4 14.6981 12.2137 14.7676C12.1307 14.7993 12.0426 14.8155 11.9537 14.8156Z"
            class="book-fill-primary-400" />
        <path
            d="M9.91906 16.3964C9.78777 16.3965 9.65877 16.362 9.54506 16.2964L6.63006 14.6134C6.5447 14.5641 6.46988 14.4985 6.40986 14.4204C6.34984 14.3422 6.30581 14.253 6.28028 14.1578C6.25474 14.0626 6.2482 13.9634 6.26103 13.8657C6.27386 13.7679 6.30581 13.6737 6.35506 13.5884C6.40431 13.503 6.46988 13.4282 6.54804 13.3682C6.62621 13.3082 6.71542 13.2641 6.8106 13.2386C6.90578 13.213 7.00506 13.2065 7.10277 13.2193C7.20048 13.2322 7.2947 13.2641 7.38006 13.3134L10.2951 14.9964C10.4384 15.0788 10.5504 15.2064 10.6137 15.3591C10.6771 15.5118 10.6882 15.6812 10.6453 15.8409C10.6024 16.0006 10.5079 16.1416 10.3766 16.2421C10.2452 16.3425 10.0844 16.3968 9.91906 16.3964Z"
            class="book-fill-primary-400" />
        <path
            d="M17.1797 20.0404C17.0158 20.0451 16.8518 20.0391 16.6887 20.0224C16.4843 20.0135 16.2853 19.9541 16.1095 19.8493C15.9338 19.7446 15.7867 19.5979 15.6817 19.4224C15.6447 19.3744 15.5067 19.1374 15.2417 18.6584C15.1424 18.4721 14.9959 18.3151 14.8169 18.2031C14.6379 18.0911 14.4327 18.0281 14.2217 18.0204C13.9729 18.0137 13.7282 18.084 13.521 18.2216C13.3137 18.3593 13.154 18.5575 13.0637 18.7894C12.8337 19.3604 12.7187 19.6454 12.4267 19.8414C12.1209 20.0136 11.7681 20.0836 11.4197 20.0414H10.9427C7.34268 20.0414 5.54268 20.0414 4.26668 18.7664C2.99068 17.4914 2.99268 15.6874 2.99268 12.0904V11.9114C2.99268 8.31137 2.99268 6.51138 4.26668 5.23538C5.54068 3.95938 7.34668 3.96138 10.9427 3.96138H11.4207C11.77 3.91875 12.1239 3.98882 12.4307 4.16137C12.7237 4.36137 12.8387 4.64738 13.0657 5.21638C13.1501 5.43147 13.2945 5.61778 13.4817 5.75317C13.6689 5.88856 13.8911 5.96731 14.1218 5.98005C14.3525 5.9928 14.582 5.939 14.783 5.82507C14.984 5.71113 15.1481 5.54187 15.2557 5.33738C15.5137 4.85338 15.6317 4.64538 15.6697 4.59338C15.7771 4.4157 15.9262 4.26689 16.1041 4.15989C16.282 4.0529 16.4834 3.99094 16.6907 3.97938C16.8512 3.96427 17.0125 3.95892 17.1737 3.96337C17.8028 3.93289 18.4333 3.9664 19.0557 4.06338C19.8746 4.23996 20.6253 4.64896 21.2177 5.24136C21.8101 5.83376 22.2191 6.58442 22.3957 7.40338C22.4926 8.02571 22.5261 8.65628 22.4957 9.28538V14.7314C22.5254 15.3568 22.4919 15.9837 22.3957 16.6024C22.2198 17.4235 21.8103 18.1762 21.2165 18.7698C20.6226 19.3635 19.8698 19.7728 19.0487 19.9484C18.4304 20.0427 17.8042 20.0735 17.1797 20.0404ZM10.9427 5.46138C7.75968 5.46138 6.16168 5.46138 5.32668 6.29538C4.49168 7.12938 4.49268 8.72837 4.49268 11.9114V12.0904C4.49268 15.2734 4.49268 16.8714 5.32668 17.7054C6.16068 18.5394 7.75968 18.5404 10.9427 18.5404H11.5487C11.5817 18.4584 11.6207 18.3564 11.6707 18.2344C11.8693 17.7293 12.2154 17.2958 12.6641 16.9904C13.1127 16.685 13.643 16.5219 14.1857 16.5224C14.6659 16.5287 15.1362 16.6607 15.5495 16.9053C15.9629 17.1498 16.305 17.4985 16.5417 17.9164C16.7347 18.2664 16.8417 18.4594 16.8877 18.5354H16.9067C16.9467 18.5354 17.0327 18.5354 17.1767 18.5354C17.6962 18.5601 18.2169 18.539 18.7327 18.4724C19.271 18.3574 19.7646 18.0892 20.1541 17.7001C20.5435 17.311 20.8122 16.8176 20.9277 16.2794C20.9932 15.7628 21.0139 15.2415 20.9897 14.7214V9.28038C21.0143 8.75687 20.9932 8.23223 20.9267 7.71238C20.8111 7.17649 20.5437 6.68519 20.1564 6.29719C19.7691 5.90919 19.2783 5.64091 18.7427 5.52438C18.2232 5.45778 17.6988 5.43669 17.1757 5.46138C17.0307 5.46138 16.9457 5.46138 16.8917 5.46138L16.8797 5.47938C16.8567 5.51838 16.7707 5.67937 16.6187 5.96937C16.392 6.42061 16.045 6.80038 15.616 7.06669C15.1869 7.333 14.6926 7.47548 14.1877 7.47837C13.6455 7.47858 13.1159 7.31559 12.6677 7.0106C12.2195 6.70561 11.8734 6.27276 11.6747 5.76838C11.6247 5.64438 11.5857 5.54137 11.5517 5.45837H10.9427V5.46138Z"
            class="book-fill-primary-400" />
        <path
            d="M21.744 14.5801H18.365C18.166 14.5801 17.9753 14.5011 17.8346 14.3605C17.694 14.2198 17.615 14.029 17.615 13.8301C17.615 13.6312 17.694 13.4405 17.8346 13.2998C17.9753 13.1592 18.166 13.0801 18.365 13.0801H21.744C21.9429 13.0801 22.1336 13.1592 22.2743 13.2998C22.4149 13.4405 22.494 13.6312 22.494 13.8301C22.494 14.029 22.4149 14.2198 22.2743 14.3605C22.1336 14.5011 21.9429 14.5801 21.744 14.5801Z"
            class="book-fill-primary-400" />
        <path
            d="M21.7419 10.9297H16.7849C16.586 10.9297 16.3953 10.8507 16.2546 10.71C16.1139 10.5694 16.0349 10.3786 16.0349 10.1797C16.0349 9.98078 16.1139 9.79002 16.2546 9.64937C16.3953 9.50872 16.586 9.42969 16.7849 9.42969H21.7419C21.9408 9.42969 22.1316 9.50872 22.2723 9.64937C22.4129 9.79002 22.4919 9.98078 22.4919 10.1797C22.4919 10.3786 22.4129 10.5694 22.2723 10.71C22.1316 10.8507 21.9408 10.9297 21.7419 10.9297Z"
            class="book-fill-primary-400" />
    </symbol>
    <symbol id="ticket-details-icon" viewBox="0 0 25 24" fill="none">
        <path fill-rule="evenodd" clip-rule="evenodd"
            d="M3.00098 8.42188C3.00098 5.79853 5.12763 3.67188 7.75098 3.67188H17.751C20.3744 3.67188 22.501 5.79852 22.501 8.42188V15.582C22.501 18.2054 20.3744 20.332 17.751 20.332H7.75098C5.12763 20.332 3.00098 18.2054 3.00098 15.582V8.42188ZM7.75098 5.17187C5.95606 5.17187 4.50098 6.62695 4.50098 8.42188V15.582C4.50098 17.3769 5.95605 18.832 7.75098 18.832H17.751C19.5459 18.832 21.001 17.3769 21.001 15.582V8.42188C21.001 6.62695 19.5459 5.17187 17.751 5.17187H7.75098Z"
            class="book-fill-primary-400" />
        <path fill-rule="evenodd" clip-rule="evenodd"
            d="M10.0349 9.70508C10.0349 9.29087 10.3707 8.95508 10.7849 8.95508H12.9365C13.3507 8.95508 13.6865 9.29087 13.6865 9.70508C13.6865 10.1193 13.3507 10.4551 12.9365 10.4551H10.7849C10.3707 10.4551 10.0349 10.1193 10.0349 9.70508Z"
            class="book-fill-primary-400" />
        <path fill-rule="evenodd" clip-rule="evenodd"
            d="M7.0625 14.25C7.0625 13.8358 7.39828 13.5 7.8125 13.5H12.9351C13.3493 13.5 13.6851 13.8358 13.6851 14.25C13.6851 14.6642 13.3493 15 12.9351 15H7.8125C7.39828 15 7.0625 14.6642 7.0625 14.25Z"
            class="book-fill-primary-400" />
        <path fill-rule="evenodd" clip-rule="evenodd"
            d="M17.0525 9.32031C17.4667 9.32031 17.8025 9.6561 17.8025 10.0703V13.9187C17.8025 14.3329 17.4667 14.6687 17.0525 14.6687C16.6382 14.6687 16.3025 14.3329 16.3025 13.9187V10.0703C16.3025 9.6561 16.6382 9.32031 17.0525 9.32031Z"
            class="book-fill-primary-400" />
        <path fill-rule="evenodd" clip-rule="evenodd"
            d="M17.0525 3.94922C17.4667 3.94922 17.8025 4.28501 17.8025 4.69922V7.29945C17.8025 7.71367 17.4667 8.04946 17.0525 8.04946C16.6382 8.04946 16.3025 7.71367 16.3025 7.29945V4.69922C16.3025 4.28501 16.6382 3.94922 17.0525 3.94922Z"
            class="book-fill-primary-400" />
        <path fill-rule="evenodd" clip-rule="evenodd"
            d="M17.0525 15.9492C17.4667 15.9492 17.8025 16.285 17.8025 16.6992V19.2994C17.8025 19.7137 17.4667 20.0494 17.0525 20.0494C16.6382 20.0494 16.3025 19.7137 16.3025 19.2994V16.6992C16.3025 16.285 16.6382 15.9492 17.0525 15.9492Z"
            class="book-fill-primary-400" />

    </symbol>
    <symbol id="wheel-bag-details-icon" viewBox="0 0 25 24" fill="none">
        <path fill-rule="evenodd" clip-rule="evenodd"
            d="M6.14731 8.01536C6.9309 7.19353 8.04365 6.7832 9.34797 6.7832H16.1537C17.4591 6.7832 18.571 7.19591 19.3532 8.0187C20.1304 8.83613 20.4978 9.9695 20.4978 11.2518V15.9356C20.4978 17.2208 20.1307 18.3548 19.3532 19.1721C18.5706 19.9946 17.4587 20.4054 16.1541 20.4054H9.34821C8.0437 20.4054 6.93087 19.9947 6.14728 19.1724C5.36855 18.3552 5 17.2209 5 15.9346V11.2518C5 9.966 5.36852 8.83214 6.14731 8.01536ZM7.23292 9.05047C6.78529 9.51993 6.5 10.2454 6.5 11.2518V15.9346C6.5 16.9416 6.78539 17.6677 7.23318 18.1376C7.67611 18.6024 8.36238 18.9054 9.34821 18.9054H16.1541C17.1399 18.9054 17.8247 18.6025 18.2665 18.1382C18.7132 17.6686 18.9978 16.9427 18.9978 15.9356V11.2518C18.9978 10.2487 18.7134 9.52275 18.2661 9.05223C17.8239 8.58708 17.1387 8.2832 16.1537 8.2832H9.34797C8.36196 8.2832 7.67572 8.58605 7.23292 9.05047Z"
            class="book-fill-primary-400" />
        <path fill-rule="evenodd" clip-rule="evenodd"
            d="M9.35107 10.3242C9.76529 10.3242 10.1011 10.66 10.1011 11.0742V16.2513C10.1011 16.6655 9.76529 17.0013 9.35107 17.0013C8.93686 17.0013 8.60107 16.6655 8.60107 16.2513V11.0742C8.60107 10.66 8.93686 10.3242 9.35107 10.3242Z"
            class="book-fill-primary-400" />
        <path fill-rule="evenodd" clip-rule="evenodd"
            d="M12.751 10.3242C13.1652 10.3242 13.501 10.66 13.501 11.0742V16.2513C13.501 16.6655 13.1652 17.0013 12.751 17.0013C12.3367 17.0013 12.001 16.6655 12.001 16.2513V11.0742C12.001 10.66 12.3367 10.3242 12.751 10.3242Z"
            class="book-fill-primary-400" />
        <path fill-rule="evenodd" clip-rule="evenodd"
            d="M16.1589 10.3242C16.5731 10.3242 16.9089 10.66 16.9089 11.0742V16.2513C16.9089 16.6655 16.5731 17.0013 16.1589 17.0013C15.7447 17.0013 15.4089 16.6655 15.4089 16.2513V11.0742C15.4089 10.66 15.7447 10.3242 16.1589 10.3242Z"
            class="book-fill-primary-400" />
        <path fill-rule="evenodd" clip-rule="evenodd"
            d="M9.34834 18.9043C9.76256 18.9042 10.0984 19.24 10.0984 19.6542L10.0985 20.9988C10.0985 21.4131 9.76273 21.7489 9.34852 21.7489C8.9343 21.7489 8.5985 21.4132 8.59847 20.9989L8.59839 19.6543C8.59836 19.2401 8.93413 18.9043 9.34834 18.9043ZM16.1543 18.9043C16.5685 18.9042 16.9043 19.24 16.9043 19.6542L16.9044 20.9988C16.9044 21.4131 16.5687 21.7489 16.1544 21.7489C15.7402 21.7489 15.4044 21.4132 15.4044 20.9989L15.4043 19.6543C15.4043 19.2401 15.7401 18.9043 16.1543 18.9043Z"
            class="book-fill-primary-400" />
        <path fill-rule="evenodd" clip-rule="evenodd"
            d="M8.96777 4.63067C8.96777 3.31579 10.033 2.25 11.3475 2.25H14.1564C15.4709 2.25 16.5361 3.31579 16.5361 4.63067V7.53298C16.5361 7.94719 16.2003 8.28298 15.7861 8.28298C15.3719 8.28298 15.0361 7.94719 15.0361 7.53298V4.63067C15.0361 4.14363 14.6419 3.75 14.1564 3.75H11.3475C10.862 3.75 10.4678 4.14364 10.4678 4.63067V7.53298C10.4678 7.94719 10.132 8.28298 9.71777 8.28298C9.30355 8.28298 8.96777 7.94719 8.96777 7.53298V4.63067Z"
            class="book-fill-primary-400" />
    </symbol>
    <symbol id="hourglass-icon" viewBox="0 0 15 16" fill="none">
        <path
            d="M10.9546 4.56784C11.0464 3.40939 10.3896 2.45101 9.11444 2.375H6.08299C4.80718 2.45101 4.15103 3.40939 4.24286 4.56784C4.31948 5.37176 5.06928 6.10453 6.36575 7.34931C6.78294 7.7835 6.78232 8.2165 6.36575 8.65131C5.06928 9.89606 4.31948 10.6283 4.24286 11.4322C4.15103 12.5906 4.80718 13.549 6.08299 13.625H9.11444C10.3896 13.549 11.0464 12.5906 10.9546 11.4322C10.8779 10.6283 10.1281 9.89606 8.83163 8.65131C8.4145 8.2165 8.4145 7.7835 8.83163 7.34931C10.1281 6.10453 10.8779 5.37176 10.9546 4.56784Z"
            stroke="#18181B" stroke-linecap="round" stroke-linejoin="round" />
        <path fill-rule="evenodd" clip-rule="evenodd"
            d="M7.59838 6.36647C7.44451 5.81005 6.82182 5.42573 6.40038 4.93255C6.01668 4.56829 6.27451 3.92188 6.80357 3.92188H8.39313C8.9222 3.92188 9.18007 4.56829 8.79632 4.93255C8.37495 5.42573 7.7522 5.81005 7.59838 6.36647Z"
            stroke="#18181B" stroke-linecap="round" stroke-linejoin="round" />
    </symbol>
    <symbol id="clock-icon" viewBox="0 0 24 24" fill="none">
        <path stroke-linecap="round" stroke-linejoin="round" d="M12 6v6h4.5m4.5 0a9 9 0 1 1-18 0 9 9 0 0 1 18 0Z" />
    </symbol>
    <symbol id="clock-icon" viewBox="0 0 24 24" fill="none">
        <path stroke-linecap="round" stroke-linejoin="round" d="M12 6v6h4.5m4.5 0a9 9 0 1 1-18 0 9 9 0 0 1 18 0Z" />
    </symbol>
    <symbol id="hour-expire-icon" viewBox="0 0 24 24" fill="none">
        <path stroke-linecap="round" stroke-linejoin="round" d="M12 6v6h4.5m4.5 0a9 9 0 1 1-18 0 9 9 0 0 1 18 0Z" />
    </symbol>
    <symbol id="calendare-icon" viewBox="0 0 24 24" fill="none">
        <path stroke-linecap="round" stroke-linejoin="round"
            d="M6.75 3v2.25M17.25 3v2.25M3 18.75V7.5a2.25 2.25 0 0 1 2.25-2.25h13.5A2.25 2.25 0 0 1 21 7.5v11.25m-18 0A2.25 2.25 0 0 0 5.25 21h13.5A2.25 2.25 0 0 0 21 18.75m-18 0v-7.5A2.25 2.25 0 0 1 5.25 9h13.5A2.25 2.25 0 0 1 21 11.25v7.5m-9-6h.008v.008H12v-.008ZM12 15h.008v.008H12V15Zm0 2.25h.008v.008H12v-.008ZM9.75 15h.008v.008H9.75V15Zm0 2.25h.008v.008H9.75v-.008ZM7.5 15h.008v.008H7.5V15Zm0 2.25h.008v.008H7.5v-.008Zm6.75-4.5h.008v.008h-.008v-.008Zm0 2.25h.008v.008h-.008V15Zm0 2.25h.008v.008h-.008v-.008Zm2.25-4.5h.008v.008H16.5v-.008Zm0 2.25h.008v.008H16.5V15Z" />
    </symbol>
</svg>