<svg xmlns="http://www.w3.org/2000/svg">
    <symbol id="down-arrow-icon" viewBox="0 0 31 32" fill="none">
        <path xmlns="http://www.w3.org/2000/svg" fill-rule="evenodd"
            clip-rule="evenodd"
            d="M20.4139 8.7501L11.9999 17.1641L3.58594 8.7501L4.99994 7.3361L11.9999 14.3361L18.9999 7.3361L20.4139 8.7501Z"
            fill="#71717A" />
    </symbol>

    <symbol id="exchange-icon" viewBox="0 0 31 32" fill="none">
        <path xmlns="http://www.w3.org/2000/svg"
            d="M16.7357 10.2857V6.42857H25.5V3.85714H16.7357V0L11.75 5.14286L16.7357 10.2857ZM9.25714 11.5714H0.5V14.1429H9.26429V18L14.25 12.8571L9.26429 7.71429V11.5714H9.25714Z"
            fill="white" />
    </symbol>
    <symbol id="sunrise-icon" viewBox="0 0 31 32" fill="none">
        <path fill-rule="evenodd" clip-rule="evenodd"
            d="M15.8443 3.21795C16.1986 3.36169 16.3693 3.76543 16.2256 4.11974L15.7197 5.36662C15.576 5.72092 15.1722 5.89163 14.818 5.74789C14.4637 5.60415 14.2929 5.20042 14.4367 4.84611L14.9425 3.59923C15.0863 3.24493 15.49 3.07422 15.8443 3.21795Z"
            fill="#52525B" />
        <path fill-rule="evenodd" clip-rule="evenodd"
            d="M21.0313 8.33475C21.1802 8.68692 21.0154 9.09312 20.6632 9.24201L19.4239 9.766C19.0718 9.91489 18.6655 9.75012 18.5166 9.39794C18.3677 9.04578 18.5325 8.63958 18.8847 8.49069L20.1241 7.96669C20.4762 7.8178 20.8824 7.98258 21.0313 8.33475Z"
            fill="#52525B" />
        <path fill-rule="evenodd" clip-rule="evenodd"
            d="M8.55668 3.27358C8.90884 3.12468 9.31504 3.28947 9.46393 3.64163L9.98794 4.88096C10.1368 5.23314 9.97207 5.63933 9.61987 5.78822C9.2677 5.93712 8.8615 5.77233 8.71261 5.42017L8.18862 4.18084C8.03973 3.82868 8.2045 3.42248 8.55668 3.27358Z"
            fill="#52525B" />
        <path fill-rule="evenodd" clip-rule="evenodd"
            d="M3.44403 8.46154C3.3003 8.81584 3.471 9.21958 3.8253 9.36332L5.07219 9.86914C5.42649 10.0129 5.83024 9.84218 5.97397 9.48788C6.1177 9.13357 5.947 8.72983 5.59269 8.5861L4.34581 8.08026C3.9915 7.93653 3.58777 8.10723 3.44403 8.46154Z"
            fill="#52525B" />
        <path fill-rule="evenodd" clip-rule="evenodd"
            d="M12.2659 8.31809C10.1193 8.31809 8.37844 10.0589 8.37844 12.2055V13.1922C8.37844 13.5745 8.06848 13.8845 7.68613 13.8845H4.0092C3.62685 13.8845 3.31689 13.5745 3.31689 13.1922C3.31689 12.8098 3.62685 12.4999 4.0092 12.4999H6.99382V12.2055C6.99382 9.29424 9.35459 6.93347 12.2659 6.93347C15.1782 6.93347 17.5379 9.29433 17.5379 12.2055V12.4999H20.5216C20.9039 12.4999 21.2139 12.8098 21.2139 13.1922C21.2139 13.5745 20.9039 13.8845 20.5216 13.8845H16.8456C16.4632 13.8845 16.1533 13.5745 16.1533 13.1922V12.2055C16.1533 10.0588 14.4133 8.31809 12.2659 8.31809Z"
            fill="#52525B" />
        <path fill-rule="evenodd" clip-rule="evenodd"
            d="M12.7559 14.0703L15.28 16.5955C15.5503 16.866 15.5502 17.3044 15.2798 17.5746C15.0093 17.8449 14.571 17.8448 14.3007 17.5744L12.9583 16.2314V20.3196C12.9583 20.7019 12.6484 21.0119 12.266 21.0119C11.8837 21.0119 11.5737 20.7019 11.5737 20.3196V16.2313L10.231 17.5744C9.96073 17.8448 9.52234 17.8449 9.25193 17.5745C8.98152 17.3043 8.98144 16.8659 9.25177 16.5955L11.7764 14.07M12.754 14.0684C12.6191 13.9343 12.4426 13.8672 12.266 13.8672L12.754 14.0684ZM12.2638 13.8672C12.1708 13.8675 12.082 13.8861 12.0011 13.9196L12.2638 13.8672ZM12.0011 13.9196C11.9195 13.9534 11.8428 14.0037 11.7764 14.07C11.7763 14.0701 11.7765 14.0699 11.7764 14.07"
            fill="#52525B" />
    </symbol>
    <symbol id="sunset-icon" viewBox="0 0 31 32" fill="none">
        <path fill-rule="evenodd" clip-rule="evenodd"
            d="M15.3443 3.21795C15.6986 3.36169 15.8693 3.76543 15.7256 4.11974L15.2197 5.36662C15.076 5.72092 14.6722 5.89163 14.318 5.74789C13.9637 5.60415 13.7929 5.20042 13.9367 4.84611L14.4425 3.59923C14.5863 3.24493 14.99 3.07422 15.3443 3.21795Z"
            fill="#52525B" />
        <path fill-rule="evenodd" clip-rule="evenodd"
            d="M20.5313 8.33475C20.6802 8.68692 20.5154 9.09312 20.1632 9.24201L18.9239 9.766C18.5718 9.91489 18.1655 9.75012 18.0166 9.39794C17.8677 9.04578 18.0325 8.63958 18.3847 8.49069L19.6241 7.96669C19.9762 7.8178 20.3824 7.98258 20.5313 8.33475Z"
            fill="#52525B" />
        <path fill-rule="evenodd" clip-rule="evenodd"
            d="M8.05668 3.27358C8.40884 3.12468 8.81504 3.28947 8.96393 3.64163L9.48794 4.88096C9.63684 5.23314 9.47207 5.63933 9.11987 5.78822C8.7677 5.93712 8.3615 5.77233 8.21261 5.42017L7.68862 4.18084C7.53973 3.82868 7.7045 3.42248 8.05668 3.27358Z"
            fill="#52525B" />
        <path fill-rule="evenodd" clip-rule="evenodd"
            d="M2.94403 8.46154C2.8003 8.81584 2.971 9.21958 3.3253 9.36332L4.57219 9.86914C4.92649 10.0129 5.33024 9.84218 5.47397 9.48788C5.6177 9.13357 5.447 8.72983 5.09269 8.5861L3.84581 8.08026C3.4915 7.93653 3.08777 8.10723 2.94403 8.46154Z"
            fill="#52525B" />
        <path fill-rule="evenodd" clip-rule="evenodd"
            d="M11.7659 8.31809C9.61927 8.31809 7.87844 10.0589 7.87844 12.2055V13.1922C7.87844 13.5745 7.56848 13.8845 7.18613 13.8845H3.5092C3.12685 13.8845 2.81689 13.5745 2.81689 13.1922C2.81689 12.8098 3.12685 12.4999 3.5092 12.4999H6.49382V12.2055C6.49382 9.29424 8.85459 6.93347 11.7659 6.93347C14.6782 6.93347 17.0379 9.29433 17.0379 12.2055V12.4999H20.0216C20.4039 12.4999 20.7139 12.8098 20.7139 13.1922C20.7139 13.5745 20.4039 13.8845 20.0216 13.8845H16.3456C15.9632 13.8845 15.6533 13.5745 15.6533 13.1922V12.2055C15.6533 10.0588 13.9133 8.31809 11.7659 8.31809Z"
            fill="#52525B" />
        <path fill-rule="evenodd" clip-rule="evenodd"
            d="M12.2557 20.8089L14.7798 18.2836C15.0501 18.0132 15.05 17.5748 14.7795 17.3045C14.5091 17.0343 14.0708 17.0344 13.8004 17.3047L12.4581 18.6477V14.5595C12.4581 14.1772 12.1481 13.8672 11.7658 13.8672C11.3834 13.8672 11.0735 14.1772 11.0735 14.5595V18.6479L9.73076 17.3047C9.46048 17.0343 9.02209 17.0343 8.75169 17.3045C8.48127 17.5749 8.4812 18.0132 8.75152 18.2836L11.2762 20.8091M12.2557 20.8089C12.2556 20.8089 12.2557 20.8088 12.2557 20.8089V20.8089ZM12.2538 20.8107C12.1189 20.9449 11.9424 21.012 11.7658 21.012L12.2538 20.8107ZM11.7636 21.012C11.6705 21.0117 11.5818 20.9931 11.5009 20.9595L11.7636 21.012ZM11.5009 20.9595C11.4193 20.9257 11.3425 20.8755 11.2762 20.8091C11.2761 20.8091 11.2763 20.8091 11.2762 20.8091"
            fill="#52525B" /> </symbol>

    <symbol id="moon-icon" viewBox="0 0 31 32" fill="none"><path
            d="M13.1722 21.7418C7.70219 21.7418 3.24219 17.2918 3.24219 11.8118C3.24219 7.40182 6.20219 3.48185 10.4322 2.27184C10.7222 2.19184 11.0922 2.31183 11.2822 2.54183C11.4822 2.79183 11.5222 3.14185 11.3622 3.43185C9.83219 6.32186 10.3722 9.96182 12.7022 12.2818C15.0222 14.6018 18.6622 15.1518 21.5522 13.6118C21.8222 13.4718 22.2122 13.5118 22.4422 13.7018C22.6722 13.8918 22.7922 14.2618 22.7122 14.5518C21.5022 18.7918 17.5722 21.7518 13.1722 21.7518V21.7418ZM9.40219 4.28182C6.60219 5.69182 4.74219 8.60183 4.74219 11.8218C4.74219 16.4718 8.52219 20.2518 13.1722 20.2518C16.3922 20.2518 19.3022 18.3918 20.7122 15.5818C17.5722 16.5518 14.0322 15.7318 11.6522 13.3418C9.27219 10.9618 8.44219 7.42182 9.41219 4.28182H9.40219Z"
            fill="#52525B" />
            
            </symbol>
            <symbol id="morning-icon" viewBox="0 0 31 32" fill="none">
                <path fill-rule="evenodd" clip-rule="evenodd"
                    d="M12.4641 3C12.8464 3 13.1564 3.30996 13.1564 3.69231V4.95868C13.1564 5.34103 12.8464 5.65098 12.4641 5.65098C12.0818 5.65098 11.7718 5.34103 11.7718 4.95868V3.69231C11.7718 3.30996 12.0818 3 12.4641 3ZM18.8279 5.63584C19.0982 5.90621 19.0982 6.34455 18.8279 6.61492L17.9324 7.51036C17.662 7.78072 17.2237 7.78072 16.9533 7.51036C16.683 7.23999 16.683 6.80165 16.9533 6.53129L17.8488 5.63584C18.1191 5.36548 18.5575 5.36548 18.8279 5.63584ZM6.10027 5.63628C6.37063 5.36592 6.80897 5.36592 7.07934 5.63628L7.97478 6.53172C8.24514 6.80209 8.24514 7.24043 7.97478 7.51079C7.70442 7.78116 7.26607 7.78116 6.99571 7.51079L6.10027 6.61535C5.8299 6.34499 5.8299 5.90664 6.10027 5.63628ZM3.46399 12.0001C3.46399 11.6178 3.77394 11.3078 4.1563 11.3078H5.42267C5.80501 11.3078 6.11497 11.6178 6.11497 12.0001C6.11497 12.3824 5.80501 12.6924 5.42267 12.6924H4.1563C3.77394 12.6924 3.46399 12.3824 3.46399 12.0001ZM18.813 12.0001C18.813 11.6178 19.123 11.3078 19.5053 11.3078H20.7717C21.154 11.3078 21.464 11.6178 21.464 12.0001C21.464 12.3824 21.154 12.6924 20.7717 12.6924H19.5053C19.123 12.6924 18.813 12.3824 18.813 12.0001ZM7.97478 16.4894C8.24514 16.7598 8.24514 17.198 7.97478 17.4684L7.07934 18.3639C6.80897 18.6342 6.37063 18.6342 6.10027 18.3639C5.8299 18.0935 5.8299 17.6551 6.10027 17.3848L6.99571 16.4894C7.26607 16.219 7.70442 16.219 7.97478 16.4894ZM16.9533 16.4894C17.2237 16.219 17.662 16.219 17.9324 16.4894L18.8279 17.3848C19.0982 17.6551 19.0982 18.0935 18.8279 18.3639C18.5575 18.6342 18.1191 18.6342 17.8488 18.3639L16.9533 17.4684C16.683 17.198 16.683 16.7598 16.9533 16.4894ZM12.4641 18.349C12.8464 18.349 13.1564 18.659 13.1564 19.0413V20.3077C13.1564 20.69 12.8464 21 12.4641 21C12.0818 21 11.7718 20.69 11.7718 20.3077V19.0413C11.7718 18.659 12.0818 18.349 12.4641 18.349Z"
                    fill="#52525B" />
                <path fill-rule="evenodd" clip-rule="evenodd"
                    d="M12.464 8.82016C10.7071 8.82016 9.28354 10.2444 9.28354 12.0006C9.28354 13.7578 10.7072 15.1819 12.464 15.1819C14.2208 15.1819 15.6445 13.7578 15.6445 12.0006C15.6445 10.2444 14.2209 8.82016 12.464 8.82016ZM7.89893 12.0006C7.89893 9.4799 9.94218 7.43555 12.464 7.43555C14.9858 7.43555 17.0291 9.4799 17.0291 12.0006C17.0291 14.5221 14.986 16.5665 12.464 16.5665C9.94207 16.5665 7.89893 14.5221 7.89893 12.0006Z"
                    fill="#52525B" />
            </symbol>
              <symbol id="right-arrow-icon" viewBox="0 0 31 32" fill="none"> <path d="M8.5 5.5L15.5 12.5L8.5 19.5" stroke="#18181B" stroke-width="1.5" stroke-linecap="round" stroke-linejoin="round"/></symbol>
              <symbol id="left-arrow-icon" viewBox="0 0 31 32" fill="none"><path d="M15.5 19.5L8.5 12.5L15.5 5.5" stroke="#18181B" stroke-width="1.5" stroke-linecap="round" stroke-linejoin="round"/></symbol>
       <symbol id="sort-up-icon" viewBox="0 0 31 32" fill="none">
       
       <path fill-rule="evenodd" clip-rule="evenodd" d="M18.1766 7.36719C18.3755 7.3672 18.5663 7.44625 18.7069 7.58694L21.53 10.4109C21.8229 10.7039 21.8228 11.1787 21.5299 11.4716C21.2369 11.7644 20.7621 11.7644 20.4692 11.4714L18.9266 9.92833L18.9271 19.4122C18.9271 19.8264 18.5913 20.1622 18.1771 20.1622C17.7629 20.1623 17.4271 19.8265 17.4271 19.4123L17.4266 9.92776L15.8829 11.4715C15.59 11.7644 15.1151 11.7644 14.8222 11.4715C14.5293 11.1786 14.5293 10.7037 14.8222 10.4108L17.6462 7.58686C17.7869 7.44619 17.9776 7.36717 18.1766 7.36719Z" fill="#71717A"/>
<path fill-rule="evenodd" clip-rule="evenodd" d="M4.25 8.11719C4.25 7.70297 4.58579 7.36719 5 7.36719H11.589C12.0032 7.36719 12.339 7.70297 12.339 8.11719C12.339 8.5314 12.0032 8.86719 11.589 8.86719H5C4.58579 8.86719 4.25 8.5314 4.25 8.11719ZM4.25 13.7654C4.25 13.3512 4.58579 13.0154 5 13.0154H11.589C12.0032 13.0154 12.339 13.3512 12.339 13.7654C12.339 14.1796 12.0032 14.5154 11.589 14.5154H5C4.58579 14.5154 4.25 14.1796 4.25 13.7654ZM4.25 19.4127C4.25 18.9985 4.58579 18.6627 5 18.6627H13.4711C13.8853 18.6627 14.2211 18.9985 14.2211 19.4127C14.2211 19.8269 13.8853 20.1627 13.4711 20.1627H5C4.58579 20.1627 4.25 19.8269 4.25 19.4127Z" fill="#71717A"/>
       </symbol>
       
        </svg>